<?xml version="1.0" encoding="utf-8"?>
<svg xmlns="http://www.w3.org/2000/svg" viewBox="0 0 165 32" aria-hidden="true">
  <path fill="currentColor" d="M156.9,0.4c0.1,0.3,0.2,0.6,0.1,0.9c-2.3,1.7-4.4,2.8-7.4,4.6c-0.6-0.4-1-0.9-1.2-1.4c1.7-1.8,3.7-3.5,4.8-4.6C154.5-0.1,155.7,0.1,156.9,0.4z"/>
  <path fill="currentColor" d="M35.6,0.4c0.1,0.3,0.2,0.6,0.1,0.9c-2.3,1.7-4.4,2.8-7.4,4.6c-0.6-0.4-1-0.9-1.2-1.4c1.7-1.8,3.7-3.5,4.8-4.6C33.1-0.1,34.4,0.1,35.6,0.4z"/>
  <path fill="currentColor" d="M164,0.4c0.1,0.3,0.2,0.6,0.1,0.9c-2.3,1.7-4.4,2.8-7.4,4.6c-0.6-0.4-1-0.9-1.2-1.4c1.7-1.8,3.7-3.5,4.8-4.6C161.6-0.1,162.8,0.1,164,0.4z"/>
  <g fill="currentColor">
    <path d="M8.3,12.1c1.5-2.4,3.7-4.6,6.6-4.6c1.4,0,2.7,0.2,3.8,0.6c0,2.6-0.3,4.2-0.8,6.3c-0.8,0.3-1.6,0.3-2.4,0c-0.1-1-0.3-2.5-0.5-3.4c-0.3,0-0.7-0.1-1.2-0.1c-1.7,0-3.3,0.6-5.2,3.7v9.2c0,1.3,0,2.4,0.1,3.6c1.8,0.1,4,0.4,5.5,0.9c0,0.7-0.1,1.7-0.3,2.1c-2.6-0.1-5.1-0.1-7.2-0.1c-1.9,0-3.7,0.1-5.6,0.1C0.7,30,0.6,29,0.6,28.3c1.3-0.1,2.8-0.5,3.7-0.8c0.1-1,0.2-1.7,0.2-2.7v-6.4c0-3.2-0.2-6.5-0.2-6.5c-1.3-0.4-2.7-0.6-4-0.7C0,10.6,0,10,0,9.4c1.8-0.8,4.9-1.7,7.3-1.8C7.6,8.4,8.1,10,8.3,12.1z"/>
    <path d="M26.1,14.4c-0.6,0.4-1.4,0.6-2.2,0.6c-0.8-1.4-1.6-2.7-1.8-4.5c2.3-1.8,5.2-3.1,8.5-3.1c2.7,0,7.4,1.1,7.4,7.5c0,2.8-0.1,5.7-0.1,8.9c0,1.3,0.1,2.6,0.5,3.7c1.1-0.1,2.3-0.5,3.2-0.8c0.4,0.4,0.7,1.1,0.7,1.8c-1.5,1.3-3.9,2.4-5.5,2.4c-1,0-1.8-1.4-2.4-4.1c-1,1.1-4.6,3.9-7.8,3.9c-3.1,0-5.3-2.2-5.3-5.6c0-5.9,8.3-8.1,12.7-8.9c0-3.5-0.7-6-3.9-6c-1.2,0-2.7,0.3-3.8,0.6C26.1,12.1,26.1,13.2,26.1,14.4z M34,24.8v-5.6c-2.1,0.1-6.9,1.3-7.6,2c-0.6,0.6-0.9,1.9-0.9,2.9c0,1.6,1,3.2,3.5,3.2C31,27.3,33.4,25.4,34,24.8z"/>
    <path d="M82,27.4c-2.2,1.3-5.9,3.4-9,3.4c-6.6,0-9.4-5-9.4-11.3c0-5.9,4.1-12.1,10-12.1c6.8,0,8.3,4.3,8.3,8.5c0,1.1-0.2,2.4-0.3,2.9c-1.9,0.2-4.6,0.3-7.5,0.3c-2.2,0-4.5-0.1-6.6-0.2c0.2,4,1.7,8.6,6.3,8.6c2,0,4.5-0.6,7.4-1.7C81.7,26.1,81.9,26.7,82,27.4z M67.6,16.5c1.5,0.1,3.3,0.2,5,0.2c2.5,0,4.7-0.1,5.4-0.3c-0.2-3.3-0.9-5.9-5.1-5.9c-1.2,0-2.7,0.5-3,0.8C69.1,12,68,14.1,67.6,16.5z"/>
    <path d="M95.4,8.2h3.1c1.2,0,3.1-0.1,4.2-0.2c0.5,0.7,0.8,1.9,0.8,2.9c-3.8,4.3-7.8,9.2-13.1,16.5c4.2,0,8.2-0.1,10.8-0.4c0.6-1,0.9-2.1,1.3-3.7c0.6-0.1,1.4,0,2,0.2c0,0.2,0,0.5,0,0.9c0,1.6-0.3,4.3-0.8,5.9c-3.2,0-9.8-0.1-13.8-0.1c-1.3,0-2.6,0-3.5,0.1c-0.4-0.8-0.7-1.8-0.7-2.8c1.6-2.7,7.5-10.5,11.3-15l1.9-1.7c-4,0-6.7,0-9.4,0.3c-0.4,1.1-0.7,2.5-0.8,3.8c-0.6,0.1-1.2,0.1-1.8-0.2c-0.3-2.1-0.5-4.4-0.3-6.8C88.5,8,92.1,8.2,95.4,8.2z"/>
    <path d="M126.1,27.4c-2.2,1.3-5.9,3.4-9,3.4c-6.6,0-9.4-5-9.4-11.3c0-5.9,4.1-12.1,10-12.1c6.8,0,8.3,4.3,8.3,8.5c0,1.1-0.2,2.4-0.3,2.9c-1.9,0.2-4.7,0.3-7.5,0.3c-2.2,0-4.5-0.1-6.6-0.2c0.2,4,1.7,8.6,6.3,8.6c2,0,4.5-0.6,7.4-1.7C125.8,26.1,126.1,26.7,126.1,27.4z M111.7,16.5c1.5,0.1,3.3,0.2,5,0.2c2.4,0,4.7-0.1,5.4-0.3c-0.2-3.3-0.9-5.9-5.1-5.9c-1.2,0-2.7,0.5-3,0.8C113.2,12,112.1,14.1,111.7,16.5z"/>
    <path d="M132.1,7.8c0-2.2,0.1-4,0.1-4.6c0.8-1,1.7-1.6,3.1-2.4c0.4,0.1,0.6,0.3,0.8,0.5c0,0-0.2,2.5-0.2,5.8v0.8c1.9,0,4.8,0.1,6.3,0.3c0,0.9,0,1.9-0.3,2.7h-6l0,12.1c0,3.2,0.4,4.6,1.5,4.6c1.4,0,2.6-0.3,4.1-0.9c0.6,0.3,0.9,0.9,1,1.7c-1.4,1.3-3.6,2.8-6.3,2.8c-3.7,0-4.3-2.7-4.3-7.2c0,0,0-7.1,0.1-13c-0.9,0-2.6-0.3-3.5-0.6c-0.2-0.7-0.2-1.5-0.1-2.2L132.1,7.8z"/>
    <path d="M165,18.8c0,5.7-3.8,12.2-10.3,12.2c-6.6,0-9.8-4.8-9.8-11.4c0-5.7,3.8-12.2,10.3-12.2C161.9,7.4,165,12.3,165,18.8z M151.2,11.5c-0.4,0.4-2.3,2.9-2.3,6.8c0,4,1.7,9.6,6.7,9.6c1,0,2.7-0.3,3.2-0.9c0.4-0.4,2.3-2.9,2.3-6.8c0-4-1.7-9.6-6.7-9.6C153.4,10.6,151.7,10.9,151.2,11.5z"/>
  </g>
  <polygon fill="#A1B455" points="60.9,19.2 50.4,8.4 47.1,6.3 44.9,8.4 54.5,19.2"/>
  <polygon fill="#899B44" points="60.9,19.1 50.4,29.9 47.1,32 44.9,29.9 54.5,19.1"/>
</svg>
