<?xml version="1.0" encoding="utf-8"?>
<!-- Generator: Adobe Illustrator 17.0.0, SVG Export Plug-In . SVG Version: 6.00 Build 0)  -->
<!DOCTYPE svg PUBLIC "-//W3C//DTD SVG 1.1//EN" "http://www.w3.org/Graphics/SVG/1.1/DTD/svg11.dtd">
<svg version="1.1" id="Layer_1" xmlns="http://www.w3.org/2000/svg" xmlns:xlink="http://www.w3.org/1999/xlink" x="0px" y="0px"
	 width="170px" height="170px" viewBox="0 0 170 170" enable-background="new 0 0 170 170" xml:space="preserve">
<g>
	<path fill="#FFFFFF" d="M35.844,51.283c0.315,0.765,0.677,1.459,1.058,2.081c1.769,2.888,3.97,4.294,3.97,4.294
		c1.117-1.104,5.463-2.318,6.082-2.981c0.32-0.34,0.943-1.671,1.27-3.336c0.308-1.565,0.354-3.423-0.37-5.028
		c-1.489-3.311-4.407-4.03-8.008-3.808c-3.599,0.22-5.307,2.237-5.307,2.237c-0.355,2.124-0.183,3.969,0.286,5.545
		C34.94,50.67,35.699,50.933,35.844,51.283z"/>
	<g>
		<path fill="none" d="M28.922,76.222c0,0,12.337,2.956,24.12,8.243c-1.564-3.81-5.345-7.925-5.345-7.925
			c-2.536-2.482-4.477-5.18-5.965-7.826c-0.88,0.464-1.751,0.913-2.608,1.349c-2.323,1.183-4.532,2.261-6.454,3.173
			c-3.169-0.01-6.525-0.202-9.654-0.467c-3.786-0.318-7.236-0.738-9.626-1.061c2.965,3.698,6.665,8.003,10.956,12.376
			C25.715,81.392,27.24,78.713,28.922,76.222z"/>
		<path fill="none" d="M31.938,88.715c-0.404,0.523-0.799,1.023-1.192,1.526c4.005,3.714,7.753,7.102,11.263,10.204h13.553
			C48.1,98.628,37.091,91.995,31.938,88.715z"/>
		<path fill="none" d="M29.499,91.821c-2.725,3.429-5.164,6.332-7.146,8.623l17.091-0.002c-3.533-3.232-6.747-6.245-9.636-9.012
			C29.705,91.561,29.6,91.693,29.499,91.821z"/>
		<g>
			<path fill="none" d="M31.938,88.715c-0.404,0.523-0.799,1.023-1.192,1.526c4.005,3.714,7.753,7.102,11.263,10.204h13.553
				C48.1,98.628,37.091,91.995,31.938,88.715z"/>
			<path fill="none" d="M29.499,91.821c-2.725,3.429-5.164,6.332-7.146,8.623l17.091-0.002c-3.533-3.232-6.747-6.245-9.636-9.012
				C29.705,91.561,29.6,91.693,29.499,91.821z"/>
			<path fill="none" d="M28.922,76.222c0,0,12.337,2.956,24.12,8.243c-1.564-3.81-5.345-7.925-5.345-7.925
				c-2.536-2.482-4.477-5.18-5.965-7.826c-0.88,0.464-1.751,0.913-2.608,1.349c-2.323,1.183-4.532,2.261-6.454,3.173
				c-3.169-0.01-6.525-0.202-9.654-0.467c-3.786-0.318-7.236-0.738-9.626-1.061c2.965,3.698,6.665,8.003,10.956,12.376
				C25.715,81.392,27.24,78.713,28.922,76.222z"/>
			<path fill="#FFFFFF" d="M72.13,124.517c-5.515-3.77-12.667-9.159-21.784-16.857c18.774-2.327,34.357-5.769,31.725-1.105
				c-2.75,4.876,10.313,2.663,22.425,2.053c11.143-0.561,52.068-2.034,63.036-8.16H59.609c2.256-0.548,5.79-1.874,8.025-5.024
				c0,0,2.38-3.65,2.38-10.313c0,0-4.914-13.46-13.888-25.172c-1.681-2.194-3.509-4.324-5.47-6.295
				c-2.71,1.455-5.601,3.158-8.324,4.877l-14.734,4.694l-14.173,4.868l18.396-2.277c-0.822,0.614-1.611,1.213-2.363,1.793
				c-3.59,0.341-9.129,0.97-17.644,2.122c-0.008-0.01-0.015-0.019-0.023-0.031c-2.902-3.699-3.392-3.58-3.392-3.58l-1.992,0.666
				l3.647,4.434l-0.013,0.022c0,0,0.02,0.003,0.037,0.006c0.245,0.282,4.73,5.441,13.585,14.216
				c-0.055,0.112-0.112,0.223-0.166,0.333c-2.685,5.537-4.684,10.954-5.928,14.662H3.202c5.734,1.144,10.391,3.194,8.785,6.105
				c-2.421,4.386,15.928,3.721,35.814,1.411c0.005,0,0.009-0.001,0.013-0.001c6.167,5.444,13.091,11.356,20.804,17.664l1.315,8.096
				l9.464,8.067c0,0,18.456-2.838,26.522-2.813l-26.008-13.8L72.13,124.517z M13.389,71.708c2.39,0.323,5.84,0.743,9.626,1.061
				c3.13,0.264,6.485,0.457,9.654,0.467c1.922-0.912,4.131-1.991,6.454-3.173c0.857-0.436,1.728-0.885,2.608-1.349
				c1.488,2.646,3.429,5.344,5.965,7.826c0,0,3.781,4.115,5.345,7.925c-11.783-5.287-24.12-8.243-24.12-8.243
				c-1.682,2.491-3.207,5.17-4.577,7.861C20.055,79.711,16.355,75.406,13.389,71.708z M22.353,100.445
				c1.981-2.291,4.421-5.194,7.146-8.623c0.101-0.128,0.206-0.261,0.309-0.39c2.89,2.766,6.103,5.78,9.636,9.012L22.353,100.445z
				 M42.008,100.445c-3.51-3.101-7.258-6.489-11.263-10.204c0.394-0.503,0.789-1.003,1.192-1.526
				c5.153,3.279,16.163,9.913,23.623,11.729L42.008,100.445L42.008,100.445z"/>
		</g>
	</g>
</g>
<path fill="#FFFFFF" d="M111.617,107.964c6.167,5.444,13.091,11.356,20.804,17.664l1.315,8.096l9.464,8.067
	c0,0,18.456-2.838,26.522-2.813l-26.008-13.8l-7.78-0.661c-5.515-3.77-12.667-9.159-21.784-16.857"/>
<g>
	<path fill="#FFFFFF" d="M99.647,51.283c0.315,0.765,0.677,1.459,1.058,2.081c1.769,2.888,3.97,4.294,3.97,4.294
		c1.117-1.104,5.463-2.318,6.082-2.981c0.32-0.34,0.943-1.671,1.27-3.336c0.308-1.565,0.354-3.423-0.37-5.028
		c-1.489-3.311-4.407-4.03-8.008-3.808c-3.599,0.22-5.307,2.237-5.307,2.237c-0.355,2.124-0.183,3.968,0.286,5.545
		C98.743,50.67,99.502,50.933,99.647,51.283z"/>
	<path fill="#FFFFFF" d="M119.929,59.939c-1.681-2.194-3.509-4.324-5.47-6.295c-2.71,1.455-5.601,3.158-8.324,4.877l-14.734,4.694
		l-14.173,4.868l18.396-2.277c-0.822,0.614-1.611,1.213-2.363,1.793c-3.59,0.341-9.129,0.97-17.644,2.122
		c-0.008-0.01-0.015-0.019-0.023-0.031c-2.902-3.699-3.392-3.58-3.392-3.58l-1.992,0.666l3.647,4.434l-0.013,0.022
		c0,0,0.02,0.003,0.037,0.006c0.245,0.282,4.73,5.441,13.585,14.216c-0.055,0.112-0.112,0.223-0.166,0.333
		c-2.685,5.537-4.684,10.954-5.928,14.662l42.04-0.002c2.256-0.548,5.79-1.874,8.025-5.024c0,0,2.38-3.65,2.38-10.313
		C133.817,85.11,128.903,71.65,119.929,59.939z M77.192,71.708c2.39,0.323,5.84,0.743,9.626,1.061
		c3.13,0.264,6.485,0.457,9.654,0.467c1.922-0.912,4.131-1.991,6.454-3.173c0.857-0.436,1.728-0.885,2.608-1.349
		c1.488,2.646,3.429,5.344,5.965,7.826c0,0,3.781,4.115,5.345,7.925c-11.783-5.287-24.12-8.243-24.12-8.243
		c-1.682,2.491-3.207,5.17-4.577,7.861C83.858,79.711,80.158,75.406,77.192,71.708z M86.156,100.445
		c1.981-2.291,4.421-5.194,7.146-8.623c0.101-0.128,0.206-0.261,0.309-0.39c2.89,2.766,6.103,5.78,9.636,9.012L86.156,100.445z
		 M105.811,100.445c-3.51-3.101-7.258-6.489-11.263-10.204c0.394-0.503,0.789-1.003,1.193-1.526
		c5.153,3.279,16.163,9.913,23.623,11.729L105.811,100.445L105.811,100.445z"/>
</g>
</svg>
