<?xml version="1.0" encoding="utf-8"?>
<!-- Generator: Adobe Illustrator 17.0.0, SVG Export Plug-In . SVG Version: 6.00 Build 0)  -->
<!DOCTYPE svg PUBLIC "-//W3C//DTD SVG 1.1//EN" "http://www.w3.org/Graphics/SVG/1.1/DTD/svg11.dtd">
<svg version="1.1" id="Layer_1" xmlns="http://www.w3.org/2000/svg" xmlns:xlink="http://www.w3.org/1999/xlink" x="0px" y="0px"
	 width="170px" height="170px" viewBox="0 0 170 170" enable-background="new 0 0 170 170" xml:space="preserve">
<g>
	<path fill="#FFFFFF" d="M68.257,112.135c0.405-0.624,0.692-1.559,0.692-2.97c0-4.832-4.659-8.457-4.659-8.457l-0.068-0.282
		c0.159-0.87,0.327-1.748,0.327-1.964c0-0.428,0.345-1.985,0.345-1.985c-0.452,0.032-1.037-0.239-1.59-0.59
		c-0.23-0.143-0.454-0.299-0.658-0.455c-3.412-7.541-4.446-15.453-4.274-22.708c0.227-0.026,0.442-0.053,0.648-0.078
		c4.472-0.582,4.667-1.43,4.667-3.347c0-2.244-2.246-2.244-2.246-2.244c1.034-0.431,0.776-0.951,0.776-0.951
		c-0.142-1.478-1.708-2.004-3.08-2.184c1.618-10.823,5.151-18.61,5.151-18.61s-1.424-1.994-8.844-3.017
		c-0.345-1.03-0.995-3.257-1.121-5.647l3.25,0.248c0.373,0,0.676-0.337,0.676-0.753v-3.653c0-0.418-0.301-0.753-0.676-0.753
		l-2.538,0.189c0.287-0.773,0.692-1.635,1.23-2.318c1.295-1.639-0.43-3.279-4.055-3.279l-0.906,0.078l-0.906-0.078
		c-3.624,0-5.35,1.639-4.055,3.279c0.535,0.678,0.937,1.532,1.224,2.302l-2.333-0.172c-0.373,0-0.676,0.335-0.676,0.753v3.653
		c0,0.416,0.302,0.753,0.676,0.753l3.046-0.217c-0.128,2.379-0.776,4.59-1.119,5.616c-7.419,1.023-8.842,3.017-8.842,3.017
		s3.534,7.788,5.147,18.61c-1.37,0.179-2.937,0.707-3.078,2.184c0,0-0.259,0.519,0.776,0.951c0,0-2.244,0-2.244,2.244
		c0,1.915,0.196,2.762,4.667,3.347c0.208,0.025,0.425,0.051,0.649,0.078c0.17,7.255-0.862,15.167-4.273,22.708
		c-0.207,0.156-0.431,0.311-0.66,0.455c-0.553,0.351-1.139,0.622-1.591,0.59c0,0,0.346,1.556,0.346,1.985
		c0,0.213,0.169,1.091,0.328,1.964l-0.066,0.282c0,0-4.663,3.624-4.663,8.457c0,1.409,0.287,2.346,0.694,2.97
		c-0.421,0.222-1.21,0.735-1.21,1.43c0,0.949,0,1.899,0,1.899s0.085,1.294,2.415,2.071c0,0,6.47,0.465,14.408,0.465
		c0.496,0,2.18,0,2.675,0c7.939,0,14.409-0.465,14.409-0.465c2.33-0.777,2.417-2.071,2.417-2.071s0-0.949,0-1.899
		C69.467,112.87,68.677,112.357,68.257,112.135z"/>
	<path fill="#FFFFFF" d="M124.679,139.832c0.584-0.9,1.001-2.255,1.001-4.292c0-6.979-6.731-12.215-6.731-12.215
		c-1.554-0.286-3.06-0.536-4.516-0.754c-2.903-5.203-2.439-12.785-1.604-16.321c1.326,0.158,2.687,0.312,4.1,0.46
		c1.209,0.13,2.44,0.256,3.713,0.374c2.127-5.173,5.649-10.737,2.955-12.268c-22.763-12.903-18.971-26.274-16.688-30.92
		c17.455,2.58,20.065,11.742,20.372,15.624c7.366-2.621,10.899-7.482,12.57-11.914c-4.195-5.923-9.74-12.144-13.117-15.644
		c-0.858-0.887,1.127-4.841,0.268-5.646c-3.746-3.516-7.889-5.993-11.939-7.742l4.404-7.881c-2.968,0.201-10.154,3.308-13.747,4.936
		c-0.765-0.163-1.508-0.305-2.221-0.425C73.876,49.077,73.082,81.149,74.708,97.032c2.373,1.304,5.999,2.824,11.479,4.352
		c2.498,8.47,1.47,16.825-0.216,20.88c-3.007,0.52-4.537,1.058-4.537,1.058s-6.732,5.235-6.732,12.215
		c0,2.037,0.418,3.391,1.001,4.291c-0.609,0.322-1.747,1.056-1.747,2.064c0,0.379,0,0.756,0,1.108h52.472c0-0.351,0-0.728,0-1.108
		C126.428,140.888,125.287,140.152,124.679,139.832z"/>
</g>
</svg>
