<?xml version="1.0" encoding="utf-8"?>
<!-- Generator: Adobe Illustrator 17.0.0, SVG Export Plug-In . SVG Version: 6.00 Build 0)  -->
<!DOCTYPE svg PUBLIC "-//W3C//DTD SVG 1.1//EN" "http://www.w3.org/Graphics/SVG/1.1/DTD/svg11.dtd">
<svg version="1.1" id="Layer_1" xmlns="http://www.w3.org/2000/svg" xmlns:xlink="http://www.w3.org/1999/xlink" x="0px" y="0px"
	 width="170px" height="170px" viewBox="0 0 170 170" enable-background="new 0 0 170 170" xml:space="preserve">
<g>
	<path fill="#FFFFFF" d="M149.969,131.835c-10.72-1.975-13.279,0.329-20.485,1.281c-2.068,0.271-3.974,0.486-5.581,0.733
		c0.02-2.039-0.156-3.418-0.156-3.418l-5.518-0.437c0.546-12.986-1.957-25.486-6.912-36.749c-2.033-4.622-4.266-9.006-6.76-13.123
		l4.115-2.854c-0.517-1.263-1.18-2.452-1.904-3.549c0.146-0.13,0.295-0.259,0.439-0.388c1.152-0.521,2.455-1.138,3.916-1.809
		c6.854-3.149,12.454-4.333,18.514-10.272c3.39-3.319,4.59-8.021,1.98-11.271c-2.606-3.251-7.514-3.2-11.424-0.507
		c-8.976,6.191-9.158,9.633-13.582,15.403c-1.27,1.657-2.465,3.158-3.429,4.472c-1.429-1.453-2.523-2.308-2.523-2.308l-3.358,2.872
		C86.957,57.556,72.705,48.784,51.533,45.153l0.914-5.034c-1.257-0.528-2.566-0.901-3.85-1.163c0.012-0.193,0.021-0.39,0.033-0.583
		c0.449-1.185,0.935-2.543,1.493-4.052c2.623-7.078,5.745-11.879,5.835-20.368c0.053-4.746-2.42-8.918-6.558-9.373
		c-4.142-0.454-7.575,3.059-8.434,7.729c-1.974,10.731,0.33,13.292,1.279,20.505c0.273,2.069,0.488,3.979,0.737,5.585
		c-2.039-0.019-3.415,0.155-3.415,0.155l-0.414,5.223C25.468,43.258,11.991,46.54,0,52.34v16.89
		c4.802-2.656,10.012-4.779,15.578-6.534c7.832-2.47,16.189-3.516,24.706-2.92c-1.499,8.938-2.874,17.133-3.834,21.396
		c-1.908,8.48-4.783,15.155-5.055,17.628c-0.312,2.832,0.164,5.491,1.186,7.587c-1.429,0.249-2.819,0.649-4.158,1.18
		c-0.189-2.415-1.232-5.063-3.106-7.398c-1.419-1.77-7.931-6.635-14.204-12.754C8.286,84.659,4.331,80.251,0,75.285v12.557
		c1.722,2.478,3.156,4.596,4.142,6.156c4.642,7.347,7.325,14.104,8.883,16.042c1.769,2.207,3.965,3.746,6.148,4.512
		c-0.821,1.159-1.505,2.438-2.07,3.781c-1.842-1.566-4.443-2.696-7.417-3.021c-1.397-0.154-5.034,0.235-9.685,0.585v12.721
		c3.738,1.199,6.552,2.217,7.972,2.373c2.772,0.304,5.387-0.146,7.46-1.126c0.199,1.438,0.569,2.808,1.085,4.123
		c-2.354,0.232-4.911,1.268-7.181,3.091c-1.425,1.144-4.854,5.596-9.334,10.565v12.72c1.21-0.822,2.279-1.531,3.168-2.095
		c7.344-4.646,14.091-7.333,16.028-8.892c2.138-1.715,3.648-3.831,4.436-5.95c0.895,0.67,1.822,1.235,2.794,1.705
		c-0.853,1.565-1.46,3.424-1.682,5.46c-0.248,2.255,0.919,10.307,1.031,19.07c0.001,0.06,0.001,0.125,0.001,0.186h9.598
		c1.908-8.437,4.762-15.07,5.032-17.533c0.219-2.012,0.041-3.932-0.44-5.626c1.076-0.229,2.124-0.54,3.137-0.937
		c0.209,2.396,1.247,5.006,3.101,7.319c1.419,1.77,7.931,6.634,14.204,12.753c1.131,1.101,2.436,2.467,3.88,4.021h10.353
		c-3.105-4.396-5.724-8.17-7.264-10.604c-4.642-7.348-7.325-14.104-8.883-16.042c-1.773-2.215-3.978-3.758-6.174-4.521
		c0.932-1.22,1.644-2.431,2.201-3.686c1.836,1.521,4.392,2.616,7.307,2.936c2.254,0.248,10.294-0.922,19.052-1.033
		c4.862-0.063,12.699,0.435,21.085,1.04c-0.197,1.176-0.42,2.352-0.683,3.525c-2.469,11.113-6.437,20.407-13.123,28.385h18.325
		c5.515-8.628,8.64-17.388,10.368-27.49l5.318,0.968c0.527-1.257,0.897-2.569,1.161-3.855c0.193,0.015,0.391,0.024,0.583,0.034
		c1.184,0.45,2.539,0.938,4.048,1.494c7.071,2.626,11.868,5.751,20.347,5.84c4.744,0.051,8.912-2.422,9.364-6.565
		C158.144,136.132,154.634,132.696,149.969,131.835z M40.693,127.86c-0.313,1.396-0.937,2.415-2.305,3.227
		c-1.091,0.646-2.24,0.92-3.577,0.622c-1.26-0.28-2.387-0.922-3.087-1.896c-0.819-1.134-1.258-2.685-0.929-4.155
		c0.505-2.263,1.758-3.213,3.429-3.739c0.819-0.258,1.721-0.313,2.619-0.111c1.13,0.252,1.936,0.688,2.776,1.688
		C40.607,124.657,41.046,126.253,40.693,127.86z M52.33,103.871c-2.103,1.688-3.61,3.77-4.407,5.856
		c-1.091-0.78-2.31-1.46-3.687-2.01c1.468-1.827,2.519-4.337,2.829-7.188c0.248-2.254-0.919-10.306-1.032-19.069
		c-0.063-4.817,0.425-12.558,1.02-20.859c1.079,0.188,2.158,0.392,3.239,0.633c14.572,3.239,25.084,8.828,35.926,21.311
		c-7.386,5.267-14.163,10.1-17.861,12.44C61.015,99.627,54.267,102.312,52.33,103.871z M102.766,131.195
		c-9.014-1.517-17.301-2.906-21.599-3.875c-8.471-1.909-15.14-4.787-17.613-5.062c-2.839-0.312-5.503,0.168-7.599,1.195
		c-0.224-1.442-0.603-2.838-1.115-4.174c2.401-0.201,5.027-1.242,7.351-3.109c1.769-1.419,6.629-7.937,12.743-14.217
		c3.371-3.462,9.211-8.613,15.522-14.081C99.228,100.174,103.808,115.406,102.766,131.195z"/>
</g>
</svg>
