<?xml version="1.0" encoding="utf-8"?>
<!-- Generator: Adobe Illustrator 21.0.0, SVG Export Plug-In . SVG Version: 6.00 Build 0)  -->
<svg version="1.1" id="Layer_1" xmlns="http://www.w3.org/2000/svg" xmlns:xlink="http://www.w3.org/1999/xlink" x="0px" y="0px"
	 width="170px" height="170px" viewBox="0 0 170 170" style="enable-background:new 0 0 170 170;" xml:space="preserve">
<style type="text/css">
	.st0{fill:#FFFFFF;}
</style>
<g>
	<path class="st0" d="M123.1,46.8c3.5,19.5-2.8,41-18.6,56.8c-15.8,15.8-37.3,22.1-56.8,18.6l-0.1-0.1c-3.5-19.5,2.8-41,18.6-56.8
		C82.1,49.5,103.6,43.2,123.1,46.8L123.1,46.8z M62.1,61.2C44.2,79.1,37.8,104,42.7,127l0.1,0.1c23,4.9,47.9-1.5,65.8-19.4
		c17.9-17.9,24.3-42.8,19.4-65.8l-0.1-0.1C104.9,36.9,80,43.3,62.1,61.2"/>
	<path class="st0" d="M72.7,71.8c-1.3,1.3-2.3,2.8-3.1,4.4l15.8,8.3l-17.9,0c0,4.6,1.8,9.2,5.3,12.7c7,7,18.4,7,25.4,0
		c7-7,7-18.4,0-25.4C91.1,64.8,79.7,64.8,72.7,71.8"/>
</g>
</svg>
