<?xml version="1.0" encoding="utf-8"?>
<!-- Generator: Adobe Illustrator 17.0.0, SVG Export Plug-In . SVG Version: 6.00 Build 0)  -->
<!DOCTYPE svg PUBLIC "-//W3C//DTD SVG 1.1//EN" "http://www.w3.org/Graphics/SVG/1.1/DTD/svg11.dtd">
<svg version="1.1" id="Layer_1" xmlns="http://www.w3.org/2000/svg" xmlns:xlink="http://www.w3.org/1999/xlink" x="0px" y="0px"
	 width="170px" height="170px" viewBox="0 0 170 170" enable-background="new 0 0 170 170" xml:space="preserve">
<polygon fill="#FFFFFF" points="158.854,65.191 84.912,98.674 10.971,65.191 84.912,31.707 "/>
<path fill="#FFFFFF" d="M84.912,106.769L40.536,86.674c-0.061,0.449-0.102,0.9-0.102,1.355v20.984
	c0,11.589,19.914,20.984,44.479,20.984c24.565,0,44.479-9.395,44.479-20.984V88.03c0-0.456-0.041-0.907-0.102-1.355L84.912,106.769z
	"/>
<line fill="none" stroke="#FFFFFF" stroke-width="2.9344" stroke-miterlimit="10" x1="144.185" y1="76.874" x2="144.185" y2="129.997"/>
<path fill="#FFFFFF" d="M144.185,118.473c-3.107,0-5.626,2.519-5.626,5.626v9.65c0,3.107,2.519,5.626,5.626,5.626
	c3.107,0,5.626-2.519,5.626-5.626v-9.65C149.811,120.991,147.292,118.473,144.185,118.473z"/>
</svg>
