<?xml version="1.0" encoding="utf-8"?>
<!-- Generator: Adobe Illustrator 17.0.0, SVG Export Plug-In . SVG Version: 6.00 Build 0)  -->
<!DOCTYPE svg PUBLIC "-//W3C//DTD SVG 1.1//EN" "http://www.w3.org/Graphics/SVG/1.1/DTD/svg11.dtd">
<svg version="1.1" id="Layer_1" xmlns="http://www.w3.org/2000/svg" xmlns:xlink="http://www.w3.org/1999/xlink" x="0px" y="0px"
	 width="170px" height="170px" viewBox="0 0 170 170" enable-background="new 0 0 170 170" xml:space="preserve">
<g>
	<path fill="#FFFFFF" d="M100.607,66.873c0-2.075-0.173-4.109-0.493-6.094l8.158-3.263l-3.214-9.892l-8.52,2.156
		c-1.853-3.666-4.276-6.995-7.164-9.859l4.684-7.437l-8.415-6.114l-5.626,6.753c-3.572-1.843-7.47-3.145-11.591-3.775l-0.582-8.761
		H57.444l-0.582,8.761c-4.121,0.63-8.018,1.932-11.591,3.775l-5.626-6.753l-8.415,6.114l4.684,7.437
		c-2.888,2.864-5.311,6.192-7.164,9.859l-8.52-2.156l-3.214,9.892l8.159,3.263c-0.32,1.985-0.493,4.019-0.493,6.094
		s0.173,4.109,0.493,6.094l-8.159,3.263l3.214,9.892l8.52-2.156c1.853,3.666,4.276,6.995,7.164,9.859l-4.684,7.437l8.415,6.114
		l5.626-6.753c3.573,1.843,7.47,3.145,11.591,3.775l0.582,8.761h10.401l0.582-8.761c4.121-0.63,8.018-1.932,11.591-3.774
		l5.626,6.753l8.415-6.114l-4.684-7.437c2.888-2.864,5.311-6.192,7.164-9.859l8.52,2.156l3.214-9.892l-8.158-3.263
		C100.434,70.982,100.607,68.948,100.607,66.873z M88.446,66.873c0,14.25-11.552,25.801-25.801,25.801S36.844,81.122,36.844,66.873
		s11.551-25.801,25.801-25.801S88.446,52.623,88.446,66.873z"/>
	<circle fill="#FFFFFF" cx="62.645" cy="66.873" r="8.65"/>
</g>
<path fill="#FFFFFF" d="M145.387,112.82c-0.098-3.007-0.766-5.866-1.918-8.47l6.726-6.135l-6.485-8.132l-7.491,5.201
	c-2.31-1.723-4.951-3.015-7.818-3.767l-0.604-9.097h-10.401l-0.604,9.097c-2.867,0.753-5.508,2.044-7.818,3.767l-7.491-5.201
	l-6.485,8.132l6.726,6.135c-1.152,2.604-1.82,5.463-1.918,8.47l-8.738,2.614l2.314,10.141l8.99-1.433
	c1.362,2.6,3.208,4.902,5.422,6.791l-3.4,8.45l9.371,4.513l4.483-7.92c1.409,0.272,2.86,0.425,4.348,0.425
	c1.488,0,2.939-0.153,4.348-0.425l4.483,7.92l9.371-4.513l-3.4-8.45c2.214-1.89,4.06-4.191,5.422-6.791l8.99,1.433l2.315-10.141
	L145.387,112.82z M122.596,125.223c-6.434,0-11.651-5.216-11.651-11.651c0-6.435,5.216-11.651,11.651-11.651
	c6.435,0,11.651,5.216,11.651,11.651C134.247,120.007,129.031,125.223,122.596,125.223z"/>
<circle fill="#FFFFFF" cx="122.596" cy="113.573" r="5.462"/>
</svg>
