<?xml version="1.0" encoding="utf-8"?>
<!-- Generator: Adobe Illustrator 17.0.0, SVG Export Plug-In . SVG Version: 6.00 Build 0)  -->
<!DOCTYPE svg PUBLIC "-//W3C//DTD SVG 1.1//EN" "http://www.w3.org/Graphics/SVG/1.1/DTD/svg11.dtd">
<svg version="1.1" id="Layer_1" xmlns="http://www.w3.org/2000/svg" xmlns:xlink="http://www.w3.org/1999/xlink" x="0px" y="0px"
	 width="170px" height="170px" viewBox="0 0 170 170" enable-background="new 0 0 170 170" xml:space="preserve">
<g>
	<path fill="#FFFFFF" d="M84.208,69.77L84.208,69.77H44.492v3.088v6.703v9.611v9.611v9.611v9.611v0.516
		c0,16.817,14.54,30.825,39.716,34.818l0,0l0,0l0,0l0,0c25.176-3.993,39.716-18.001,39.716-34.818V69.77H84.208z M84.208,147.633
		c-10.138-1.749-18.569-5.333-24.491-10.409h24.491V147.633z M84.208,127.613H52.434c-1.243-2.866-1.883-5.92-1.883-9.094v-0.516
		h33.657V127.613z M84.208,108.392H50.551v-9.611h33.657V108.392z M84.208,89.171H50.551V79.56h33.657V89.171z M116.51,104.34
		h-9.749v16.469c2.784,1.2,3.532,2.28,4.37,5.76c1.181,0.018,2.971,1.988,3.482,3.725c-1.363,2.298-3.143,4.451-5.326,6.413
		c-5.158,4.642-12.358,8.092-21.017,10.104v-7.551c0.937-6.616,3.21-12.509,7.737-12.509c0.798-3.313,1.61-4.473,4.203-5.758
		v-16.652h-9.75v-6.074h9.749v-4.682h-7.023v-6.073h7.023v-7.862h6.551v7.862h7.023v6.073h-7.023v4.682h9.749L116.51,104.34
		L116.51,104.34z"/>
	<path fill="#FFFFFF" d="M121.273,54.112h-4.163c-2.23-15.248-15.751-27.03-32.214-27.35l-2.855-5.98L87,18.613l-1.511-3.165
		l-4.959,2.169l-2.345-4.912l-3.306,1.446l2.345,4.912l-4.959,2.169l1.511,3.165l4.959-2.169l2.232,4.676
		C65.676,28.321,53.42,39.659,51.306,54.112h-4.163v11.792h74.13C121.273,65.904,121.273,54.112,121.273,54.112z"/>
</g>
</svg>
