<?xml version="1.0" encoding="utf-8"?>
<!-- Generator: Adobe Illustrator 21.0.0, SVG Export Plug-In . SVG Version: 6.00 Build 0)  -->
<svg version="1.1" id="Layer_1" xmlns="http://www.w3.org/2000/svg" xmlns:xlink="http://www.w3.org/1999/xlink" x="0px" y="0px"
	 width="170px" height="170px" viewBox="0 0 170 170" style="enable-background:new 0 0 170 170;" xml:space="preserve">
<style type="text/css">
	.st0{fill:#FFFFFF;}
</style>
<g>
	<path class="st0" d="M47.3,60.5c5.2,0,9.4,4.3,9.4,9.5c0,5.1-4.1,9.4-9.4,9.4c-5.2,0-9.5-4.3-9.5-9.4
		C37.8,64.8,42.1,60.5,47.3,60.5 M119.7,32.6c2.4,0,4.3,1.9,4.3,4.3c0,2.4-1.9,4.3-4.3,4.3c-2.4,0-4.3-1.9-4.3-4.3
		C115.5,34.5,117.4,32.6,119.7,32.6 M119.7,73.9c2.4,0,4.3,1.9,4.3,4.3c0,2.4-1.9,4.3-4.3,4.3c-2.4,0-4.3-1.9-4.3-4.3
		C115.5,75.8,117.4,73.9,119.7,73.9 M119.7,83.6c4.4,0,6.8,4,8.1,8.1l1.1,3.5c0.2,0.5-0.5,1.1-1.1,1.1h-16.2c-0.6,0-1.3-0.6-1.1-1.1
		l1.1-3.5C112.9,87.5,115.3,83.6,119.7,83.6 M119.7,115.2c2.4,0,4.3,1.9,4.3,4.3c0,2.4-1.9,4.3-4.3,4.3c-2.4,0-4.3-1.9-4.3-4.3
		C115.5,117.1,117.4,115.2,119.7,115.2 M119.7,124.9c4.4,0,6.8,4,8.1,8.3l1.1,3.3c0.2,0.6-0.5,1.1-1.1,1.1h-16.2
		c-0.6,0-1.3-0.5-1.1-1.1l1.1-3.3C112.9,128.8,115.3,124.9,119.7,124.9 M119.7,42.3c4.4,0,6.8,3.8,8.1,8.1l1.1,3.5
		c0.2,0.5-0.5,1.1-1.1,1.1h-16.2c-0.6,0-1.3-0.6-1.1-1.1l1.1-3.5C112.9,46.1,115.3,42.3,119.7,42.3 M86.4,129.3
		c-1.6,0-2.7-1.3-2.7-2.9V87.9H67c-1.6,0-2.9-1.3-2.9-2.9c0-1.4,1.3-2.7,2.9-2.7h16.7V43.7c0-1.6,1.1-2.9,2.7-2.9H105
		c1.6,0,2.9,1.3,2.9,2.9c0,1.4-1.3,2.7-2.9,2.7H89.2v35.9h16.7c1.6,0,2.7,1.3,2.7,2.7c0,1.6-1.1,2.9-2.7,2.9H89.2v35.7h17.3
		c1.6,0,2.9,1.3,2.9,2.9c0,1.6-1.3,2.9-2.9,2.9H86.4z M47.3,81.8c9.7,0,14.8,8.6,17.8,17.8l2.4,7.5c0.3,1.3-1.1,2.4-2.5,2.4H29.5
		c-1.3,0-2.9-1.1-2.4-2.4l2.4-7.5C32.4,90.4,37.5,81.8,47.3,81.8"/>
</g>
</svg>
