<?xml version="1.0" encoding="utf-8"?>
<!-- Generator: Adobe Illustrator 17.0.0, SVG Export Plug-In . SVG Version: 6.00 Build 0)  -->
<!DOCTYPE svg PUBLIC "-//W3C//DTD SVG 1.1//EN" "http://www.w3.org/Graphics/SVG/1.1/DTD/svg11.dtd">
<svg version="1.1" id="Layer_1" xmlns="http://www.w3.org/2000/svg" xmlns:xlink="http://www.w3.org/1999/xlink" x="0px" y="0px"
	 width="170px" height="170px" viewBox="0 0 170 170" enable-background="new 0 0 170 170" xml:space="preserve">
<g>
	<path fill="#FFFFFF" d="M63.31,128.614c0.537-0.827,0.918-2.067,0.918-3.938c0-6.408-6.178-11.214-6.178-11.214l-0.09-0.374
		c0.211-1.153,0.434-2.318,0.434-2.604c0-0.568,0.457-2.632,0.457-2.632c-0.6,0.043-1.375-0.317-2.109-0.782
		c-0.305-0.189-0.602-0.396-0.873-0.604c-4.524-9.999-5.895-20.491-5.668-30.111c0.301-0.035,0.586-0.07,0.859-0.104
		c5.93-0.772,6.189-1.896,6.189-4.438c0-2.976-2.978-2.976-2.978-2.976c1.371-0.572,1.029-1.261,1.029-1.261
		c-0.188-1.96-2.265-2.658-4.084-2.896c2.146-14.352,6.83-24.678,6.83-24.678s-1.888-2.644-11.728-4.001
		c-0.457-1.366-1.32-4.319-1.486-7.488l4.31,0.329c0.494,0,0.896-0.447,0.896-0.998V23c0-0.554-0.399-0.998-0.896-0.998l-3.366,0.25
		c0.381-1.025,0.918-2.168,1.631-3.074c1.717-2.174-0.57-4.348-5.377-4.348l-1.201,0.104l-1.201-0.104
		c-4.805,0-7.094,2.174-5.377,4.348c0.709,0.899,1.242,2.032,1.623,3.052l-3.094-0.228c-0.494,0-0.896,0.444-0.896,0.998v4.844
		c0,0.551,0.4,0.998,0.896,0.998l4.039-0.288c-0.17,3.154-1.029,6.087-1.484,7.447c-9.838,1.357-11.725,4.001-11.725,4.001
		s4.686,10.327,6.825,24.678c-1.817,0.237-3.894,0.938-4.082,2.896c0,0-0.344,0.688,1.029,1.261c0,0-2.976,0-2.976,2.976
		c0,2.54,0.26,3.662,6.188,4.438c0.276,0.033,0.563,0.068,0.86,0.104c0.226,9.62-1.143,20.112-5.666,30.111
		c-0.274,0.207-0.571,0.413-0.875,0.604c-0.733,0.466-1.51,0.825-2.11,0.782c0,0,0.459,2.063,0.459,2.632
		c0,0.282,0.224,1.447,0.435,2.604l-0.088,0.374c0,0-6.183,4.806-6.183,11.214c0,1.869,0.381,3.111,0.92,3.938
		c-0.558,0.294-1.604,0.974-1.604,1.896c0,1.259,0,2.518,0,2.518s0.113,1.716,3.203,2.746c0,0,8.58,0.617,19.105,0.617
		c0.658,0,2.891,0,3.547,0c10.527,0,19.107-0.617,19.107-0.617c3.09-1.03,3.205-2.746,3.205-2.746s0-1.259,0-2.518
		C64.915,129.588,63.867,128.908,63.31,128.614z"/>
	<path fill="#FFFFFF" d="M138.128,165.498c0.775-1.194,1.328-2.99,1.328-5.691c0-9.255-8.926-16.197-8.926-16.197
		c-2.061-0.379-4.058-0.711-5.988-1c-3.85-6.9-3.234-16.953-2.127-21.642c1.758,0.21,3.563,0.414,5.437,0.61
		c1.603,0.172,3.235,0.339,4.923,0.496c2.82-6.86,7.491-14.238,3.918-16.268c-30.184-17.11-25.156-34.84-22.129-41.001
		c23.146,3.421,26.607,15.57,27.014,20.718c9.767-3.476,14.453-9.922,16.668-15.798c-5.563-7.854-12.916-16.104-17.394-20.744
		c-1.138-1.176,1.495-6.419,0.356-7.487c-4.967-4.663-10.461-7.947-15.832-10.266l5.84-10.451
		c-3.936,0.266-13.465,4.387-18.229,6.545c-1.015-0.216-2-0.405-2.945-0.564c-39.281,18.396-40.334,60.924-38.178,81.986
		c3.147,1.729,7.955,3.745,15.221,5.771c3.313,11.232,1.949,22.31-0.287,27.688c-3.988,0.689-6.016,1.403-6.016,1.403
		s-8.927,6.942-8.927,16.197c0,2.701,0.554,4.497,1.328,5.69c-0.808,0.427-2.317,1.4-2.317,2.737c0,0.503,0,1.003,0,1.469h69.58
		c0-0.466,0-0.966,0-1.469C140.447,166.898,138.934,165.923,138.128,165.498z"/>
</g>
</svg>
