<?xml version="1.0" encoding="utf-8"?>
<!-- Generator: Adobe Illustrator 17.0.0, SVG Export Plug-In . SVG Version: 6.00 Build 0)  -->
<!DOCTYPE svg PUBLIC "-//W3C//DTD SVG 1.1//EN" "http://www.w3.org/Graphics/SVG/1.1/DTD/svg11.dtd">
<svg version="1.1" id="Layer_1" xmlns="http://www.w3.org/2000/svg" xmlns:xlink="http://www.w3.org/1999/xlink" x="0px" y="0px"
	 width="170px" height="170px" viewBox="0 0 170 170" enable-background="new 0 0 170 170" xml:space="preserve">
<path fill="#FFFFFF" d="M113.464,25.993c-17.835-1.139-24.292-10.497-35.331-10.497c-17.213,0-20.345,16.276-33.569,23.711
	c-6.387,3.591-7.528,13.204-7.528,21.048c0,8.932,9.197,13.713,10.172,21.972c1.913,16.204,18.831,35.234,37.231,24.007
	c12.003-7.324,21.852,0.823,29.093-4.069c12.068-8.153,8.562-27.671,16.276-41.3C135.912,50.082,122.929,26.598,113.464,25.993z
	 M84.643,95.903c-18.115,0-32.8-14.685-32.8-32.8s14.685-32.8,32.8-32.8c18.115,0,32.8,14.685,32.8,32.8
	S102.758,95.903,84.643,95.903z"/>
<path fill="#FFFFFF" d="M73.191,114.493c-8.706,0-16.432-4.734-22.001-11.486l-21.295,33.134l20.572-0.005l11.305,17.188
	l17.586-39.645c-2.036,0.531-4.093,0.814-6.164,0.814C73.193,114.493,73.192,114.493,73.191,114.493z"/>
<path fill="#FFFFFF" d="M117.791,105.084c-0.485,0.39-0.992,0.767-1.525,1.127c-2.534,1.712-5.391,2.509-8.992,2.509
	c-1.857,0-3.732-0.211-5.545-0.415c-1.811-0.204-3.685-0.415-5.534-0.415c-3.523,0-6.365,0.775-9.212,2.512
	c-0.039,0.024-0.079,0.044-0.118,0.067l19.01,42.854l11.305-17.188l20.572,0.005L117.791,105.084z"/>
<polygon fill="#FFFFFF" points="80.269,77.71 68.936,66.376 73.305,62.006 80.269,68.97 98.996,50.244 103.366,54.613 "/>
</svg>
