<?xml version="1.0" encoding="utf-8"?>
<!-- Generator: Adobe Illustrator 17.0.0, SVG Export Plug-In . SVG Version: 6.00 Build 0)  -->
<!DOCTYPE svg PUBLIC "-//W3C//DTD SVG 1.1//EN" "http://www.w3.org/Graphics/SVG/1.1/DTD/svg11.dtd">
<svg version="1.1" id="Layer_1" xmlns="http://www.w3.org/2000/svg" xmlns:xlink="http://www.w3.org/1999/xlink" x="0px" y="0px"
	 width="170px" height="170px" viewBox="0 0 170 170" enable-background="new 0 0 170 170" xml:space="preserve">
<path fill="#FFFFFF" d="M113.174,28.536c-17.058-1.089-23.234-10.04-33.793-10.04c-16.464,0-19.459,15.567-32.107,22.679
	c-6.109,3.435-7.2,12.629-7.2,20.131c0,8.543,8.797,13.116,9.73,21.016c1.83,15.498,18.011,33.7,35.61,22.962
	c11.481-7.005,20.901,0.787,27.827-3.892c11.543-7.798,8.189-26.467,15.567-39.502C134.645,51.577,122.227,29.114,113.174,28.536z
	 M85.608,95.403c-17.326,0-31.372-14.046-31.372-31.372s14.046-31.372,31.372-31.372c17.326,0,31.372,14.046,31.372,31.372
	S102.934,95.403,85.608,95.403z"/>
<path fill="#FFFFFF" d="M74.653,113.184c-8.327,0-15.717-4.528-21.043-10.986l-20.368,31.691l19.677-0.005l10.813,16.439
	l16.821-37.919c-1.947,0.508-3.915,0.779-5.896,0.779C74.656,113.184,74.655,113.184,74.653,113.184z"/>
<path fill="#FFFFFF" d="M117.313,104.184c-0.464,0.373-0.949,0.733-1.459,1.078c-2.424,1.637-5.156,2.4-8.6,2.4
	c-1.776,0-3.569-0.202-5.304-0.397c-1.733-0.195-3.524-0.397-5.293-0.397c-3.37,0-6.087,0.741-8.811,2.403
	c-0.038,0.023-0.076,0.042-0.113,0.064l18.182,40.989l10.813-16.439l19.677,0.005L117.313,104.184z"/>
<polygon fill="#FFFFFF" points="81.424,78.001 70.584,67.161 74.763,62.982 81.424,69.642 99.336,51.731 103.515,55.91 "/>
</svg>
