<?xml version="1.0" encoding="utf-8"?>
<!-- Generator: Adobe Illustrator 17.0.0, SVG Export Plug-In . SVG Version: 6.00 Build 0)  -->
<!DOCTYPE svg PUBLIC "-//W3C//DTD SVG 1.1//EN" "http://www.w3.org/Graphics/SVG/1.1/DTD/svg11.dtd">
<svg version="1.1" id="Layer_1" xmlns="http://www.w3.org/2000/svg" xmlns:xlink="http://www.w3.org/1999/xlink" x="0px" y="0px"
	 width="170px" height="170px" viewBox="0 0 170 170" enable-background="new 0 0 170 170" xml:space="preserve">
<path fill="#FFFFFF" d="M135.568,75.425c-4.971-1.054-7.607,0.979-7.607,0.979s-4.82,1.13-5.121,1.207
	c-0.303,0.076,0.375,1.883,0.375,1.883l-1.179,1.558c-0.293-0.306-0.607-0.595-0.916-0.887c-0.011-0.016-0.016-0.021-0.016-0.021
	l-0.004,0.002c-1.613-1.528-3.396-2.869-5.127-3.978c0.559-4.884,1.175-11.387,0.826-13.825c-0.486-3.395,0.765-8.124,1.215-9.664
	c1.186-1.624,2.889-4.088,3.433-6.032c3.651,1.065,7.171,2.3,10.586,3.451c1.429,0.48,3.828-1.368,1.079-2.332
	c-2.996-1.046-7.204-2.521-12.245-3.717c-0.113-0.081-0.226-0.167-0.34-0.242c-2.092-1.44-4.577-2.314-6.026-1.011
	c-4.747-0.731-9.979-1.077-15.473-0.613l-0.034-1.168c-4.891-5.282-9.586,0.587-7.434,1.369c0.317,0.114,0.616,0.311,0.897,0.558
	c0.052,0.046,0.101,0.101,0.152,0.151c-10.963,2.209-22.582,8.043-33.234,20.517c-0.158,0.185-0.311,0.377-0.468,0.564
	c-0.059-0.011-0.117-0.024-0.177-0.035c-3.966-0.76-8.157-1.382-12.506-1.786l-0.642-9.115c3.374-6.015,0.44-11.15,0.44-11.15
	c-6.017-0.882-9.685,13.94-9.685,13.94c-2.202,3.668-2.494,10.124-2.494,10.124c0.89,0.687,1.786,1.175,2.667,1.531
	c2.16,0.413,7.023,1.478,12.709,3.593v-0.008c0.017,0.011,0.036,0.016,0.053,0.025c1.074,0.402,2.18,0.853,3.298,1.332
	c-0.704,1.046-1.397,2.108-2.076,3.193c-5.209-1.953-9.985-3.67-12.601-4.428l1.629,2.928c0,0,4.235,2.864,8.454,5.689
	C31.333,109,22.894,149.012,18.534,170h8.799c3.452-20.497,9.333-61.333,24.037-87.735c2.301,1.531,4.184,2.768,4.768,3.11
	c0,0,6.039,5.347,11.736,9.325c-2.66,7.435-5.131,16.645-5.853,26.522c0,0-0.391,8.412,14.086,13.889
	c0,0,42.118-2.599,53.804-36.193c0.154-0.446,0.188-0.992,0.131-1.608c9.03-1.866,12.002-7.279,12.002-7.279
	C142.646,84.311,140.537,76.478,135.568,75.425z M72.616,83.303l-0.391,0.938c-2.657-1.056-10.497-4.163-18.227-7.101
	c0.571-1.046,1.155-2.068,1.752-3.064c1.023,0.499,2.048,1.021,3.07,1.593c1.05,0.435,2.123,0.86,3.222,1.276
	c3.718,1.412,7.703,2.714,11.855,3.77C73.508,81.475,73.078,82.337,72.616,83.303z M98.215,100.682
	c-3.508,1.979-7.968,4.991-11.763,7.67c3.798-13.127,4.059-23.908,3.366-31.428c-0.11-1.179-0.24-2.288-0.385-3.302
	c-1.827-0.804-4.325-1.844-7.374-2.969c-5.066-1.872-11.656-3.987-19.246-5.673c-0.176-0.039-0.357-0.076-0.533-0.114
	c1.241-1.45,2.524-2.788,3.848-3.997C76.281,51.62,85.502,46.92,93.995,44.97c0.694,1.264,1.089,2.494,1.089,2.494
	c-1.564,13.89,3.912,28.172,3.912,28.172c2.777,4.068,7.059,8.079,10.61,11.053C102.218,92.111,98.215,100.682,98.215,100.682z
	 M113.163,50.701c-0.262,0.822-0.548,1.757-0.861,2.827c-2.734,9.32-3.334,15.558-3.411,18.873
	c-0.439-0.187-0.696-0.287-0.696-0.287c-2.935-15.456-8.999-24.261-8.999-24.261l-0.107-3.751c5.048-0.557,9.837-0.212,14.41,0.621
	C112.973,46.817,113.105,49.786,113.163,50.701z"/>
</svg>
