<?xml version="1.0" encoding="utf-8"?>
<!-- Generator: Adobe Illustrator 21.0.0, SVG Export Plug-In . SVG Version: 6.00 Build 0)  -->
<svg version="1.1" id="Layer_1" xmlns="http://www.w3.org/2000/svg" xmlns:xlink="http://www.w3.org/1999/xlink" x="0px" y="0px"
	 width="170px" height="170px" viewBox="0 0 170 170" style="enable-background:new 0 0 170 170;" xml:space="preserve">
<style type="text/css">
	.st0{fill:#FFFFFF;}
</style>
<g>
	<path class="st0" d="M103.5,38.5h-71v53h8L35,108l20.8-16.5h47.7V38.5z M72,77.3h-7.4v-6.3H72V77.3z M78.4,58.7
		c0,4.7-3.1,6.7-7.3,7.7l-0.4,2.4h-4.5l-1-6.3l0.3-0.3c4.3-0.4,5.9-1.4,5.9-3v-0.1c0-1.3-1-2.1-2.8-2.1c-1.8,0-3.7,0.9-5.4,2.5
		l-3.7-4.9c2.3-2.3,5.4-3.9,9.7-3.9C74.5,50.7,78.4,53.7,78.4,58.7L78.4,58.7z"/>
	<polygon class="st0" points="136.5,66.5 109.5,66.5 109.5,97.5 65.5,97.5 65.5,119.5 113.2,119.5 134,136 128.5,119.5 136.5,119.5 
			"/>
</g>
</svg>
