<?xml version="1.0" encoding="utf-8"?>
<!-- Generator: Adobe Illustrator 21.0.0, SVG Export Plug-In . SVG Version: 6.00 Build 0)  -->
<svg version="1.1" id="Layer_1" xmlns="http://www.w3.org/2000/svg" xmlns:xlink="http://www.w3.org/1999/xlink" x="0px" y="0px"
	 width="170px" height="170px" viewBox="0 0 170 170" style="enable-background:new 0 0 170 170;" xml:space="preserve">
<style type="text/css">
	.st0{fill:#FFFFFF;}
</style>
<g>
	<g>
		<path class="st0" d="M54.1,61c3.1,0.3,6.1-1.4,7.3-4.3c1.2-2.9,0.4-6.2-2.1-8.2c-0.9-0.7-2.1-1.1-3.1-1.6h-2.7
			c-0.3,0.1-0.6,0.3-0.9,0.4c-3.3,1.1-5.4,4.7-4.6,8.1C48.5,58.4,51.1,60.7,54.1,61"/>
		<path class="st0" d="M129.6,87c0,0.3-0.2,0.5-0.5,0.5H89.2h-9.6c-0.3,0-0.5-0.2-0.5-0.5v-2.5v-7v-3.6c0.4,0.1,0.9,0.3,1.4,0.4
			c0.7,0.2,1.4,0.4,2,0.7l-1.3,1.8c-0.1,0.2,0,0.4,0.3,0.6c0.3,0.2,0.6,0.2,0.7,0l1.3-1.8l0.2-0.2c0.3,0.1,0.5,0.1,0.8,0.2
			c0.3,0.1,0.6,0.1,0.9,0c1.3-0.1,2.2-0.9,2.6-2.3c0.3-1.1,0-2.2-0.8-2.9l11.8-16.5c0.1-0.2,0-0.4-0.3-0.6c-0.3-0.2-0.6-0.2-0.7,0
			L86.2,69.8c-0.1,0-0.2-0.1-0.3-0.1c-1-0.3-2-0.6-3-1c-1.3-0.4-2.6-0.8-3.9-1.3v-4.9V50c0-0.3,0.2-0.5,0.5-0.5H129
			c0.3,0,0.5,0.2,0.5,0.5V87z M53.1,80.1l1.3-12.7h0.7h0.7l1.3,12.7l-2,1.6L53.1,80.1z M56.9,63.4l-1.1,2.8h-0.7H55h-0.7l-1.1-2.8
			H55h0.1H56.9z M129,47H79.6c-1.7,0-3.1,1.4-3.1,3.1v12.5v4.1c-1.5-0.5-2.9-1-4.4-1.4c-2.2-0.7-4.4-1.4-6.6-2.2
			c-1.4-0.4-2.8-0.6-4.1-0.5c-0.9,0-1.9,0-2.8,0v0l0,0c-0.3,0-0.9,0-1.7,0h-0.1c-2.8,0-7.4,0-8.9,0h-0.2c-4.4,0-7.6,2.3-8.9,6.3
			c-0.1,0.4-0.3,0.8-0.4,1.2c0,0.1-0.1,0.2-0.2,0.4v24.1c0.5,0.9,1.1,1.7,2.2,2c2.1,0.5,3.8-0.7,4-2.8c0.1-0.5,0-1,0-1.5
			c0-5.8,0-11.6,0-17.4v-1.2h1.4v1.4c0,17.3,0,34.6,0,51.9c0,0.8,0,1.5,0.2,2.3c0.3,1.5,1.5,2.3,2.8,2.9h2.1
			c0.3-0.1,0.6-0.2,0.9-0.4c2-0.9,2.6-2.6,2.6-4.8c-0.1-9.8,0-19.5,0-29.3v-1.2h1.1v1.3c0,9.7,0,19.5,0,29.2c0,2.5,0.7,4.3,3.2,5.2
			h2.1c0.3-0.1,0.6-0.3,0.9-0.4c1.9-0.9,2.5-2.6,2.5-4.8c0-1.6,0-3.2,0-4.8c0-6,0-12,0-18v-9.6v-21h0v-4.3l1,0.2l1.2,0.4
			c3.4,1.1,6.8,2.2,10.2,3.3v6v4.4v1V87c0,1.7,1.4,3.1,3.1,3.1H88h41c1.7,0,3.1-1.4,3.1-3.1V50C132.1,48.3,130.7,47,129,47"/>
	</g>
	<rect x="82.9" y="66" class="st0" width="13.3" height="4"/>
	<rect x="82.9" y="58.7" class="st0" width="13.3" height="4"/>
	<rect x="82.9" y="73.4" class="st0" width="13.3" height="4"/>
	<g>
		<path class="st0" d="M114.6,56.1c-5.7,0-10.4,4.6-10.4,10.4h10.4V56.1z"/>
		<path class="st0" d="M117.5,58.9v10.4h-10.4c0,5.7,4.6,10.4,10.4,10.4c5.7,0,10.4-4.6,10.4-10.4C127.9,63.5,123.2,58.9,117.5,58.9
			"/>
	</g>
</g>
</svg>
