<?xml version="1.0" encoding="utf-8"?>
<!-- Generator: Adobe Illustrator 17.0.0, SVG Export Plug-In . SVG Version: 6.00 Build 0)  -->
<!DOCTYPE svg PUBLIC "-//W3C//DTD SVG 1.1//EN" "http://www.w3.org/Graphics/SVG/1.1/DTD/svg11.dtd">
<svg version="1.1" id="Layer_1" xmlns="http://www.w3.org/2000/svg" xmlns:xlink="http://www.w3.org/1999/xlink" x="0px" y="0px"
	 width="170px" height="170px" viewBox="0 0 170 170" enable-background="new 0 0 170 170" xml:space="preserve">
<path fill="#FFFFFF" d="M154.295,70.752c-6.437-1.365-9.85,1.268-9.85,1.268s-6.241,1.463-6.631,1.563
	c-0.392,0.099,0.486,2.438,0.486,2.438l-1.526,2.018c-0.38-0.396-0.786-0.771-1.186-1.149c-0.014-0.021-0.021-0.027-0.021-0.027
	l-0.005,0.002c-2.089-1.979-4.397-3.715-6.639-5.151c0.724-6.324,1.521-14.744,1.07-17.902c-0.629-4.396,0.991-10.52,1.573-12.514
	c1.536-2.103,3.741-5.293,4.445-7.81c4.728,1.379,9.285,2.978,13.708,4.468c1.85,0.622,4.957-1.771,1.397-3.019
	c-3.879-1.354-9.328-3.264-15.855-4.813c-0.146-0.105-0.292-0.216-0.44-0.314c-2.709-1.865-5.927-2.996-7.803-1.309
	c-6.147-0.947-12.922-1.394-20.036-0.794l-0.044-1.512c-6.333-6.84-12.413,0.76-9.626,1.773c0.411,0.147,0.798,0.403,1.162,0.723
	c0.067,0.06,0.131,0.131,0.197,0.195C84.476,31.746,69.43,39.3,55.638,55.453c-0.204,0.24-0.403,0.488-0.606,0.73
	c-0.077-0.014-0.152-0.031-0.229-0.045c-5.136-0.984-10.562-1.789-16.194-2.313l-0.831-11.803c4.369-7.789,0.57-14.438,0.57-14.438
	c-7.791-1.142-12.541,18.051-12.541,18.051c-2.851,4.75-3.23,13.109-3.23,13.109c1.152,0.889,2.313,1.522,3.453,1.983
	c2.797,0.535,9.094,1.914,16.457,4.652v-0.01c0.022,0.014,0.047,0.021,0.068,0.032c1.391,0.521,2.823,1.104,4.271,1.725
	c-0.912,1.355-1.809,2.73-2.688,4.134c-6.745-2.529-12.929-4.752-16.317-5.734l2.109,3.791c0,0,5.484,3.709,10.947,7.367
	c-16.801,29.185-26.846,65.842-32.492,93.019h11.394c4.47-26.541,12.444-62.972,25.491-90.093c2.979,1.982,5.418,3.584,6.174,4.027
	c0,0,7.82,6.924,15.196,12.074c-3.444,9.627-6.644,21.553-7.579,34.342c0,0-0.506,10.893,18.239,17.984
	c0,0,54.537-3.365,69.669-46.865c0.2-0.578,0.244-1.285,0.17-2.082c11.692-2.416,15.541-9.425,15.541-9.425
	C163.46,82.259,160.729,72.116,154.295,70.752z M72.781,80.953l-0.506,1.215c-3.441-1.367-13.592-5.39-23.601-9.195
	c0.74-1.354,1.496-2.678,2.269-3.967c1.325,0.646,2.652,1.322,3.975,2.063c1.36,0.563,2.749,1.113,4.172,1.652
	c4.814,1.828,9.974,3.514,15.35,4.881C73.936,78.586,73.379,79.703,72.781,80.953z M105.928,103.457
	c-4.543,2.563-10.318,6.463-15.232,9.932c4.918-16.998,5.256-30.957,4.359-40.695c-0.142-1.526-0.311-2.963-0.499-4.276
	c-2.366-1.041-5.6-2.388-9.548-3.845c-6.56-2.424-15.093-5.162-24.921-7.346c-0.228-0.051-0.462-0.098-0.69-0.148
	c1.607-1.877,3.268-3.61,4.983-5.176c13.146-11.975,25.086-18.061,36.084-20.586c0.898,1.637,1.41,3.23,1.41,3.23
	c-2.025,17.985,5.066,36.479,5.066,36.479c3.596,5.267,9.141,10.461,13.738,14.312C111.111,92.359,105.928,103.457,105.928,103.457z
	 M125.283,38.739c-0.339,1.064-0.709,2.275-1.115,3.66c-3.54,12.068-4.317,20.146-4.417,24.438
	c-0.568-0.242-0.901-0.371-0.901-0.371c-3.801-20.014-11.653-31.414-11.653-31.414l-0.139-4.857
	c6.537-0.721,12.737-0.274,18.659,0.804C125.037,33.709,125.209,37.554,125.283,38.739z"/>
</svg>
