<?xml version="1.0" encoding="utf-8"?>
<!-- Generator: Adobe Illustrator 17.0.0, SVG Export Plug-In . SVG Version: 6.00 Build 0)  -->
<!DOCTYPE svg PUBLIC "-//W3C//DTD SVG 1.1//EN" "http://www.w3.org/Graphics/SVG/1.1/DTD/svg11.dtd">
<svg version="1.1" id="Layer_1" xmlns="http://www.w3.org/2000/svg" xmlns:xlink="http://www.w3.org/1999/xlink" x="0px" y="0px"
	 width="170px" height="170px" viewBox="0 0 170 170" enable-background="new 0 0 170 170" xml:space="preserve">
<path fill="#FFFFFF" d="M31.678,47.066V115.5h105.46V47.066H31.678z M50.466,105.846l-5.632-5.633l3.001-3.001l2.631,2.631
	l9.06-9.06l3.001,3.001L50.466,105.846z M50.466,88.398l-5.632-5.633l3.001-3.001l2.631,2.631l9.06-9.06l3.001,3.001L50.466,88.398z
	 M50.466,70.951l-5.632-5.633l3.001-3.001l2.631,2.631l9.06-9.06l3.001,3.001L50.466,70.951z M120.225,101.008H69.307V96.11h50.919
	V101.008z M114.22,83.56H69.307v-4.897h44.913V83.56z M124.229,66.113H69.307v-4.898h54.922V66.113z"/>
<polygon fill="#FFFFFF" points="73.222,141.287 84.908,129.601 96.594,141.287 105.707,141.287 84.908,120.488 64.11,141.287 "/>
<polygon fill="#FFFFFF" points="92.12,33.311 92.12,26.639 77.697,26.639 77.697,33.311 20.889,33.311 20.889,39.62 77.697,39.62 
	92.12,39.62 148.928,39.62 148.928,33.311 "/>
</svg>
