<?xml version="1.0" encoding="utf-8"?>
<!-- Generator: Adobe Illustrator 21.0.0, SVG Export Plug-In . SVG Version: 6.00 Build 0)  -->
<svg version="1.1" id="Layer_1" xmlns="http://www.w3.org/2000/svg" xmlns:xlink="http://www.w3.org/1999/xlink" x="0px" y="0px"
	 width="170px" height="170px" viewBox="0 0 170 170" style="enable-background:new 0 0 170 170;" xml:space="preserve">
<style type="text/css">
	.st0{fill:#FFFFFF;}
</style>
<g>
	<path class="st0" d="M123.1,61.1c-1.9-1.8-4.2-2.7-6.9-2.7c-2.6,0-4.9,0.9-6.7,2.8c-1.9,1.9-2.8,4.1-2.8,6.7c0,2.6,0.9,4.8,2.8,6.7
		c1.9,1.9,4.1,2.8,6.8,2.8c2.7,0,5-0.9,6.9-2.8c1.9-1.9,2.9-4.2,2.8-6.8C125.9,65.2,125,62.9,123.1,61.1z"/>
	<path class="st0" d="M73.2,58.4c-2.6,0-4.9,0.9-6.7,2.8c-1.9,1.9-2.8,4.1-2.8,6.7c0,2.6,0.9,4.8,2.8,6.7c1.9,1.9,4.1,2.8,6.8,2.8
		c2.7,0,5-0.9,6.9-2.8c1.9-1.9,2.9-4.2,2.8-6.8c0-2.6-1-4.9-2.9-6.7C78.1,59.3,75.8,58.4,73.2,58.4z"/>
	<path class="st0" d="M85.2,21.4c-26.5,0-48,21.5-48,48c0,12.9,7.9,27.9,12.8,36c1.2,2,2.2,3.6,2.9,4.6c2.5,3.9,18.7,27.2,27.3,37.8
		c1.5,1.9,2.8,3.4,3.7,4.3c0,0,0.1,0.1,0.1,0.1c0.4,0.3,0.7,0.6,0.9,0.7c0.1,0.1,0.2,0.1,0.3,0.1h0v0h0c2.6,0,29.1-37.9,32.3-43
		c3.2-5.1,15.7-24.5,15.7-40.6C133.2,42.9,111.6,21.4,85.2,21.4z M58.9,77.1v2.1H44.8v-2.1l10.4-10c1.3-1.3,1.9-2.7,1.8-4.1
		c-0.1-1.3-0.6-2.4-1.5-3.3c-0.9-0.9-2-1.3-3.3-1.4c-1.3,0-2.5,0.5-3.5,1.4c-1,0.9-1.5,2.1-1.5,3.4v0.8H45v-0.8c0-2,0.7-3.6,2.2-5
		c1.4-1.4,3.1-2,5.1-2c1.9,0,3.4,0.6,4.7,1.8c1.3,1.2,2.1,2.7,2.3,4.5c0,0.3,0,0.6,0,0.9c0,1.9-0.8,3.6-2.4,5.1l-9,8.6H58.9z
		 M81.7,76.1c-2.3,2.3-5.1,3.5-8.4,3.5c-3.2,0-6-1.1-8.4-3.4c-2.4-2.3-3.6-5-3.6-8.2c0-3.3,1.2-6.1,3.5-8.4c2.3-2.3,5.1-3.5,8.4-3.5
		c3.3,0,6.1,1.1,8.5,3.3c2.4,2.3,3.6,5,3.6,8.2C85.2,71,84,73.8,81.7,76.1z M102.5,77.1v2.1H88.4v-2.1l10.4-10
		c1.3-1.3,1.9-2.7,1.8-4.1c-0.1-1.3-0.6-2.4-1.5-3.3c-0.9-0.9-2-1.3-3.3-1.4c-1.3,0-2.5,0.5-3.5,1.4c-1,0.9-1.5,2.1-1.5,3.4v0.8
		h-2.2v-0.8c0-2,0.7-3.6,2.2-5c1.4-1.4,3.1-2,5.1-2c1.9,0,3.4,0.6,4.7,1.8c1.3,1.2,2.1,2.7,2.3,4.5c0,0.3,0,0.6,0,0.9
		c0,1.9-0.8,3.6-2.4,5.1l-9,8.6H102.5z M116.3,79.6c-3.2,0-6-1.1-8.4-3.4c-2.4-2.3-3.6-5-3.6-8.2c0-3.3,1.2-6.1,3.5-8.4
		c2.3-2.3,5.1-3.5,8.4-3.5c3.3,0,6.1,1.1,8.5,3.3c2.4,2.3,3.6,5,3.6,8.2c0,3.3-1.2,6.1-3.5,8.5C122.4,78.5,119.6,79.6,116.3,79.6z"
		/>
</g>
</svg>
