<?xml version="1.0" encoding="utf-8"?>
<!-- Generator: Adobe Illustrator 17.0.0, SVG Export Plug-In . SVG Version: 6.00 Build 0)  -->
<!DOCTYPE svg PUBLIC "-//W3C//DTD SVG 1.1//EN" "http://www.w3.org/Graphics/SVG/1.1/DTD/svg11.dtd">
<svg version="1.1" id="Layer_1" xmlns="http://www.w3.org/2000/svg" xmlns:xlink="http://www.w3.org/1999/xlink" x="0px" y="0px"
	 width="170px" height="170px" viewBox="0 0 170 170" enable-background="new 0 0 170 170" xml:space="preserve">
<g>
	<path fill="#FFFFFF" d="M101.758,35.522l0,28.909c-0.031,1.716-0.857,7.857-1.717,11.571H69.344
		c-0.86-3.713-1.686-9.85-1.716-11.549v-28.93H101.758 M104.049,28.933H65.336c-2.374,0-4.299,1.925-4.299,4.299v31.221
		c0,2.374,1.925,18.139,4.299,18.139h38.713c2.374,0,4.299-15.765,4.299-18.139V33.231
		C108.348,30.857,106.423,28.933,104.049,28.933L104.049,28.933z"/>
</g>
<path fill="#FFFFFF" d="M144.712,86.479V55.135c0-2.2-1.784-3.984-3.984-3.984H28.657c-2.2,0-3.984,1.784-3.984,3.984v31.344
	l60.02,10.905L144.712,86.479z"/>
<path fill="#FFFFFF" d="M125.782,95.749v12.998h-7.031V97.027l-34.058,6.188l-34.058-6.188v11.721h-7.031V95.749l-18.931-3.44
	v39.937c0,2.2,1.784,3.984,3.984,3.984h112.071c2.2,0,3.984-1.784,3.984-3.984V92.31L125.782,95.749z"/>
</svg>
