<?xml version="1.0" encoding="utf-8"?>
<!-- Generator: Adobe Illustrator 21.0.0, SVG Export Plug-In . SVG Version: 6.00 Build 0)  -->
<svg version="1.1" id="Layer_1" xmlns="http://www.w3.org/2000/svg" xmlns:xlink="http://www.w3.org/1999/xlink" x="0px" y="0px"
	 width="170px" height="170px" viewBox="0 0 170 170" style="enable-background:new 0 0 170 170;" xml:space="preserve">
<style type="text/css">
	.st0{fill:#FFFFFF;}
</style>
<g>
	<path class="st0" d="M66.8,100.1c0-7.2,0-14.5,0-21.7v-1.5h1.5v1.3c0,6.4,0,12.7,0,19.1c0,0.5,0,1.1,0.1,1.6c0.1,1,0.6,1.8,1.3,2.3
		l1.3,0.5c0.3,0,0.6,0,0.9,0c1.8-0.1,3-1.4,3.1-3.3c0-5.3,0-10.6,0-15.8c0-2.5,0-5.1,0-7.6c0-6-4.2-10.3-10.2-10.4
		c-1.9,0-3.7,0-5.6,0v0.9L58,67.9l-0.2,0.5L59,88.2l-2,2.3l0,0l0,0l-2-2.3L56,68.4l-0.2-0.5l-1.2-2.4v-0.9c-1.8,0-3.5,0-5.3,0
		c-5.3,0.1-8.9,3-10.1,8.1c0,0.1-0.1,0.3-0.2,0.4v26.3c0.6,1,1.2,1.9,2.4,2.2c2.3,0.5,4.1-0.7,4.3-3.1c0.1-0.5,0-1.1,0-1.6
		c0-6.3,0-12.6,0-18.9v-1.3h1.5v1.5c0,8.8,0,17.5,0,26.3l8.7-8.6L66.8,100.1z"/>
	<path class="st0" d="M56.3,63c3.4,0.3,6.6-1.6,7.9-4.7c1.3-3.2,0.5-6.8-2.3-8.9c-1-0.8-2.2-1.2-3.4-1.7h-2.9
		c-0.3,0.1-0.7,0.3-1,0.4c-3.6,1.2-5.8,5.1-5,8.8C50.2,60.1,53,62.7,56.3,63"/>
	<path class="st0" d="M140.3,74.9l-23.1,2.2l0.7,7.8l9.4-0.9l-12.7,14.6l-6.8-2.1l-9.9-3.1l-9.6,10.1l-5.6,5.9L71,105.1
		c-0.5-0.1-1-0.2-1.3-0.5l-2.9-1.1l-10.8-4.1l-8.7,8.6L30.1,125l6.1,6.2l11-10.9l8.9-8.8l1.6-1.5l0.3-0.3l8.7,3.3l18.3,6.9l3.2-3.4
		l8.9-9.5l1.6-1.7l1.7-1.8l7.4,2.3l9.6,3l16.4-18.7l0.8,8.2l7.8-0.7L140.3,74.9z"/>
	<path class="st0" d="M71,105.1l-1.3-0.5C70.1,104.9,70.5,105.1,71,105.1"/>
	<path class="st0" d="M116.1,65.8c0-6-4.2-10.3-10.2-10.4c-1.9,0-3.7,0-5.6,0v0.9l-1.2,2.4l-0.2,0.5L100,79l-2,2.3l0,0l0,0l-2-2.3
		l1.2-19.7l-0.2-0.5l-1.2-2.4v-0.9c-1.8,0-3.5,0-5.3,0c-5.3,0.1-8.9,3-10.1,8.1c0,0.1-0.1,0.3-0.2,0.4v26.3c0.6,1,1.2,1.9,2.4,2.2
		c2.3,0.5,4.1-0.7,4.3-3.1c0.1-0.5,0-1.1,0-1.6V68.9v-1.3h1.5v1.5c0,10.4,0,20.7,0,31.1L97.9,90l10,3.1V69.2v-1.5h1.5V69
		c0,6.4,0,12.7,0,19.1c0,0.5,0,1.1,0.1,1.6c0.3,1.9,1.6,3,3.5,2.8c1.8-0.1,3-1.4,3.1-3.3c0-5.3,0-10.6,0-15.8
		C116.1,70.9,116.1,68.4,116.1,65.8"/>
	<path class="st0" d="M97.3,53.7c3.4,0.3,6.6-1.6,7.9-4.7c1.3-3.2,0.5-6.8-2.3-8.9c-1-0.8-2.2-1.2-3.4-1.7h-2.9
		c-0.3,0.1-0.7,0.3-1,0.4c-3.6,1.2-5.8,5.1-5,8.8C91.3,50.9,94.1,53.4,97.3,53.7"/>
</g>
</svg>
