<?xml version="1.0" encoding="utf-8"?>
<!-- Generator: Adobe Illustrator 17.0.0, SVG Export Plug-In . SVG Version: 6.00 Build 0)  -->
<!DOCTYPE svg PUBLIC "-//W3C//DTD SVG 1.1//EN" "http://www.w3.org/Graphics/SVG/1.1/DTD/svg11.dtd">
<svg version="1.1" id="Layer_1" xmlns="http://www.w3.org/2000/svg" xmlns:xlink="http://www.w3.org/1999/xlink" x="0px" y="0px"
	 width="170px" height="170px" viewBox="0 0 170 170" enable-background="new 0 0 170 170" xml:space="preserve">
<path fill="#FFFFFF" d="M85.001,156.396c-36.268,0-65.774-29.505-65.774-65.772s29.506-65.774,65.774-65.774
	s65.772,29.506,65.772,65.774S121.268,156.396,85.001,156.396z M85.001,34.915c-30.718,0-55.708,24.991-55.708,55.708
	s24.991,55.708,55.708,55.708s55.708-24.99,55.708-55.708S115.719,34.915,85.001,34.915z"/>
<rect x="78.847" y="14.132" fill="#FFFFFF" width="12.305" height="12.043"/>
<rect x="71.778" y="9.681" fill="#FFFFFF" width="26.443" height="8.902"/>
<rect x="78.847" y="14.132" fill="#FFFFFF" width="12.305" height="12.043"/>
<rect x="78.847" y="14.132" fill="#FFFFFF" width="12.305" height="12.043"/>
<rect x="112.045" y="24.848" transform="matrix(0.8479 0.5301 -0.5301 0.8479 34.3391 -57.9637)" fill="#FFFFFF" width="12.305" height="12.043"/>
<path fill="#FFFFFF" d="M85,88.379c-2.094,0-3.791-1.697-3.791-3.791V46.499c0-2.094,1.697-3.791,3.791-3.791
	s3.791,1.697,3.791,3.791v38.089C88.791,86.682,87.094,88.379,85,88.379z"/>
<path fill="#FFFFFF" d="M85.001,105.112c-6.389,0-11.586-5.197-11.586-11.586S78.612,81.94,85.001,81.94
	c6.388,0,11.585,5.198,11.585,11.586S91.388,105.112,85.001,105.112z M85.001,89.237c-2.365,0-4.289,1.924-4.289,4.289
	s1.924,4.289,4.289,4.289c2.364,0,4.288-1.924,4.288-4.289S87.365,89.237,85.001,89.237z"/>
</svg>
