<?xml version="1.0" encoding="utf-8"?>
<!-- Generator: Adobe Illustrator 17.0.0, SVG Export Plug-In . SVG Version: 6.00 Build 0)  -->
<!DOCTYPE svg PUBLIC "-//W3C//DTD SVG 1.1//EN" "http://www.w3.org/Graphics/SVG/1.1/DTD/svg11.dtd">
<svg version="1.1" id="Layer_1" xmlns="http://www.w3.org/2000/svg" xmlns:xlink="http://www.w3.org/1999/xlink" x="0px" y="0px"
	 width="170px" height="170px" viewBox="0 0 170 170" enable-background="new 0 0 170 170" xml:space="preserve">
<g>
	<path fill="#FFFFFF" d="M84.208,69.77L84.208,69.77H44.492v3.088v6.703v9.611v9.611v9.611v9.611v0.516
		c0,16.817,14.54,30.825,39.716,34.818l0,0l0,0l0,0l0,0c25.176-3.993,39.716-18.001,39.716-34.818V69.77H84.208z M84.208,147.633
		c-10.138-1.749-18.569-5.333-24.491-10.409h24.491V147.633z M84.208,127.613H52.434c-1.243-2.866-1.883-5.92-1.883-9.094v-0.516
		h33.657V127.613z M84.208,108.392H50.551v-9.611h33.657V108.392z M84.208,89.171H50.551V79.56h33.657V89.171z M116.51,104.34
		h-9.749v16.469c2.784,1.2,3.532,2.28,4.37,5.76c1.181,0.018,2.971,1.988,3.482,3.725c-1.363,2.298-3.143,4.451-5.326,6.413
		c-5.158,4.642-12.358,8.092-21.017,10.104v-7.551c0.937-6.616,3.21-12.509,7.737-12.509c0.798-3.313,1.61-4.473,4.203-5.758
		v-16.652h-9.75v-6.074h9.749v-4.682h-7.023v-6.073h7.023v-7.862h6.551v7.862h7.023v6.073h-7.023v4.682h9.749L116.51,104.34
		L116.51,104.34z"/>
	<path fill="#FFFFFF" d="M119.054,53.225h-3.914c-2.096-14.335-14.808-25.412-30.285-25.713l-2.684-5.622l4.662-2.039l-1.421-2.976
		l-4.662,2.039l-2.205-4.618l-3.108,1.359l2.205,4.618l-4.662,2.039l1.421,2.976l4.662-2.039l2.098,4.396
		c-14.375,1.332-25.898,11.991-27.885,25.579h-3.914v11.086h69.692C119.054,64.311,119.054,53.225,119.054,53.225z"/>
</g>
</svg>
