<?xml version="1.0" encoding="utf-8"?>
<!-- Generator: Adobe Illustrator 17.0.0, SVG Export Plug-In . SVG Version: 6.00 Build 0)  -->
<!DOCTYPE svg PUBLIC "-//W3C//DTD SVG 1.1//EN" "http://www.w3.org/Graphics/SVG/1.1/DTD/svg11.dtd">
<svg version="1.1" id="Layer_1" xmlns="http://www.w3.org/2000/svg" xmlns:xlink="http://www.w3.org/1999/xlink" x="0px" y="0px"
	 width="170px" height="170px" viewBox="0 0 170 170" enable-background="new 0 0 170 170" xml:space="preserve">
<g>
	<path fill="#FFFFFF" d="M118.368,97.076l0.423-0.567c2.407-0.747,12.426-3.91,13.843-5.325c0,0,3.021-1.427-4.89-3.038
		c-0.769-0.158-1.586-0.268-2.434-0.344l4.297-5.743c0.531-1.986-1.854-2.385-1.854-2.385c-2.077-0.732-3.743-1.026-5.02-0.942
		c-1.243,0.087-2.6,0.997-2.6,0.997c-1.757,0.865-8.624,5.644-11.396,7.957c-3.083-3.207-7.851-8.801-12.559-14.336
		c9.513-6.629,21.753-15.345,23.669-17.658c3.201-3.859-2.633-5.169-2.633-5.169c-6.125-2.815-11.676-0.882-11.676-0.882
		c-4.128,1.213-15.292,4.653-24.085,7.375c-5.669-4.735-10.697-5.334-13.313-5.728c-2.353-0.352-4.745,0.636-6.342,0.992
		c0,0-6.614-3.989-9.632-3.989c-1.844,0-5.218,0.495-7.592,1.362c1.38-1.519,6.36-7.195,4.878-8.425
		c-1.712-1.418-2.763-0.5-2.763-0.5c-1.51,1.487-2.907,5.504-3.807,8.571c-1.716-0.379-3.25-0.282-3.338,0.574
		c-0.126,1.186,0.857,2.671,1.728,3.733l-0.746,1.07c0,0-6.656,7.636-4.89,8.99c1.764,1.355,2.781,0.4,2.781,0.4
		c1.53-1.628,2.83-6.062,3.601-9.207c0.205,2.914,0.806,7.138,2.56,9.323c0,0,2.436,2.066,6.286,5.125l-3.292-1.362
		c0,0-9.044,4.389-18.842,9.388c0,0-21.971,11.032-21.971,12.285s-7.184,9.639,21.971,8.829c7.446-1.213,10.382-2.724,43.683-13.467
		c7.351,4.755,14.752,8.777,20.248,9.996c2.91,0.649,5.667,1.23,8.232,1.752c-1.604,3.276-4.115,8.696-3.441,9.145
		c0,0,2.903,1.938,5.646,2.423c2.07,0.365,8.649-5.891,11.748-8.978c3.317,0.555,5.21,0.82,5.21,0.82s-0.071-0.336-1.851-2.573
		L118.368,97.076z M68.378,69.02c0,0-14.482-10.207-11.932-10.542c0,0,3.657-1.761,5.526-1.609c0,0,4.756,2.518,6.405,4.753
		C68.378,61.624,68.575,66.811,68.378,69.02z"/>
	<polygon fill="#FFFFFF" points="131.674,96.153 127.108,103.574 131.674,118.051 170,141.555 170,119.659 	"/>
</g>
</svg>
