<?xml version="1.0" encoding="utf-8"?>
<!-- Generator: Adobe Illustrator 17.0.0, SVG Export Plug-In . SVG Version: 6.00 Build 0)  -->
<!DOCTYPE svg PUBLIC "-//W3C//DTD SVG 1.1//EN" "http://www.w3.org/Graphics/SVG/1.1/DTD/svg11.dtd">
<svg version="1.1" id="Layer_1" xmlns="http://www.w3.org/2000/svg" xmlns:xlink="http://www.w3.org/1999/xlink" x="0px" y="0px"
	 width="170px" height="170px" viewBox="0 0 170 170" enable-background="new 0 0 170 170" xml:space="preserve">
<g>
	<path fill="#FFFFFF" d="M84.998,104.749c-43.804,0-57.45,28.72-57.45,28.72v14.367h49.529c0.132-10.449,2.161-19.797,5.332-26.369
		c-3.745-2.749-6.54-6.521-7.874-10.853c3.228-0.442,6.7-0.701,10.463-0.701c3.745,0,7.2,0.257,10.415,0.694
		c-1.333,4.334-4.129,8.109-7.876,10.859c3.171,6.571,5.201,15.92,5.332,26.369h49.582v-14.367
		C142.452,133.469,128.799,104.749,84.998,104.749z M127.507,140.529h-21.426v-6.571h21.426V140.529z"/>
	<path fill="#FFFFFF" d="M57.865,62.315C59.684,80.317,71.136,96.244,85,96.244c15.129,0,27.393-18.963,27.393-38.894
		c0-2.256-0.096-4.422-0.287-6.499c1.456-1.475,2.405-2.951,2.405-4.24c0-6.221-7.798-25.439-30.128-25.439
		c-22.33,0-30.128,14.619-30.128,36.442C54.256,58.507,55.543,61.278,57.865,62.315z"/>
</g>
</svg>
