<?xml version="1.0" encoding="utf-8"?>
<!-- Generator: Adobe Illustrator 17.0.0, SVG Export Plug-In . SVG Version: 6.00 Build 0)  -->
<!DOCTYPE svg PUBLIC "-//W3C//DTD SVG 1.1//EN" "http://www.w3.org/Graphics/SVG/1.1/DTD/svg11.dtd">
<svg version="1.1" id="Layer_1" xmlns="http://www.w3.org/2000/svg" xmlns:xlink="http://www.w3.org/1999/xlink" x="0px" y="0px"
	 width="170px" height="170px" viewBox="0 0 170 170" enable-background="new 0 0 170 170" xml:space="preserve">
<path fill="#FFFFFF" d="M49.823,99.818c0,0,6.344,31.668,35.827,49.74c11.089-8.857,19.491-27.014-7.262-62.571
	c-21.169-28.132-15.664-50.433-7.171-64.3c-28.872,6.311-50.494,32.014-50.494,62.78c0,32.521,24.155,59.382,55.499,63.665
	C49.799,126.315,49.823,99.818,49.823,99.818z"/>
<path fill="#FFFFFF" d="M119.179,77.44C81.327,68.869,96.8,27.923,96.8,27.923s-23.567,12.379,6.191,66.182
	c14.005,29.464,0.482,46.97-9.377,55.052c31.424-4.213,55.663-31.111,55.663-63.689c0-19.451-8.653-36.872-22.306-48.659
	c3.247,4.798,6.038,10.032,7.683,15.633C140.061,70.826,127.625,79.218,119.179,77.44z"/>
<circle fill="#FFFFFF" cx="120.029" cy="60.169" r="11.082"/>
</svg>
