<?xml version="1.0" encoding="utf-8"?>
<!-- Generator: Adobe Illustrator 17.0.0, SVG Export Plug-In . SVG Version: 6.00 Build 0)  -->
<!DOCTYPE svg PUBLIC "-//W3C//DTD SVG 1.1//EN" "http://www.w3.org/Graphics/SVG/1.1/DTD/svg11.dtd">
<svg version="1.1" id="Layer_1" xmlns="http://www.w3.org/2000/svg" xmlns:xlink="http://www.w3.org/1999/xlink" x="0px" y="0px"
	 width="170px" height="170px" viewBox="0 0 170 170" enable-background="new 0 0 170 170" xml:space="preserve">
<path fill="#FFFFFF" d="M71.769,37.581l-0.957-2.874c-0.803,0.083-1.589,0.262-2.33,0.491c-0.049-0.104-0.1-0.209-0.149-0.312
	c-0.104-0.743-0.238-1.587-0.377-2.529c-0.651-4.422-0.395-7.803-2.762-12.237c-1.322-2.48-3.793-3.943-6.071-3.002
	c-2.28,0.942-3.064,3.743-2.182,6.412c2.027,6.134,3.951,6.809,6.496,10.285c0.73,0.997,1.385,1.928,1.971,2.691
	c-1.064,0.57-1.729,1.052-1.729,1.052l1.27,2.83"/>
<path fill="#FFFFFF" d="M66.15,38.764c1.784,5.059,7.22,19.365,7.934,21.851c1.421,4.946,1.826,9.23,2.388,10.592
	c0.643,1.559,1.647,2.805,2.774,3.603l6.431-2.624c0.243-1.366,0.075-2.969-0.575-4.537c-0.512-1.241-3.408-5.091-5.959-9.609
	c-1.403-2.484-7.471-16.177-9.51-20.662"/>
<path fill="#FFFFFF" d="M82.137,72.686c-6.341,2.627-9.352,9.896-6.726,16.237c2.627,6.341,9.896,9.352,16.237,6.726
	c6.341-2.627,9.352-9.896,6.726-16.237C95.748,73.071,88.478,70.06,82.137,72.686z M88.25,87.444
	c-1.809,0.749-3.884-0.11-4.633-1.919c-0.749-1.809,0.11-3.884,1.919-4.633c1.809-0.749,3.884,0.11,4.633,1.919
	C90.919,84.62,90.059,86.694,88.25,87.444z"/>
<path fill="#FFFFFF" d="M67.938,38.407c-25.273,10.468-37.274,39.442-26.806,64.715s39.442,37.274,64.715,26.806
	s37.274-39.442,26.806-64.715S93.211,27.939,67.938,38.407z M102.524,121.905c-20.842,8.633-44.736-1.264-53.369-22.106
	s1.264-44.736,22.106-53.369s44.736,1.264,53.369,22.106S123.366,113.272,102.524,121.905z"/>
<path fill="#FFFFFF" d="M43.257,61.92l-2.709-1.356c-0.509,0.627-0.938,1.309-1.3,1.995c-0.108-0.039-0.218-0.077-0.326-0.116
	c-0.599-0.452-1.29-0.954-2.055-1.522c-3.587-2.666-5.797-5.238-10.606-6.699c-2.688-0.818-5.47-0.106-6.416,2.17
	c-0.946,2.278,0.48,4.813,2.991,6.077c5.771,2.904,7.609,2.02,11.865,2.679c1.221,0.189,2.342,0.384,3.296,0.509
	c-0.349,1.156-0.479,1.966-0.479,1.966l2.899,1.103"/>
<path fill="#FFFFFF" d="M40.12,66.729c4.839,2.316,18.799,8.587,21.062,9.841c4.502,2.493,7.818,5.236,9.178,5.801
	c1.558,0.648,3.148,0.819,4.509,0.586l2.692-6.403c-0.794-1.138-2.046-2.152-3.615-2.802c-1.24-0.515-6.01-1.19-11.008-2.581
	c-2.748-0.764-16.721-6.156-21.335-7.885"/>
<path fill="#FFFFFF" d="M75.412,79.412c-2.627,6.341,0.385,13.611,6.726,16.237c6.341,2.627,13.611-0.385,16.237-6.726
	c2.627-6.341-0.385-13.611-6.726-16.237S78.038,73.071,75.412,79.412z M90.169,85.525c-0.749,1.809-2.824,2.669-4.633,1.919
	c-1.809-0.749-2.669-2.824-1.919-4.633c0.749-1.809,2.824-2.669,4.633-1.919C90.059,81.641,90.919,83.715,90.169,85.525z"/>
<path fill="#FFFFFF" d="M40.307,99.291l-2.874,0.957c0.083,0.803,0.262,1.589,0.491,2.33c-0.104,0.049-0.208,0.1-0.312,0.149
	c-0.743,0.104-1.587,0.238-2.529,0.377c-4.422,0.651-7.803,0.395-12.237,2.762c-2.48,1.322-3.943,3.793-3.002,6.071
	c0.942,2.28,3.743,3.064,6.412,2.182c6.134-2.027,6.809-3.951,10.285-6.496c0.997-0.73,1.928-1.385,2.691-1.971
	c0.57,1.064,1.052,1.729,1.052,1.729l2.83-1.27"/>
<path fill="#FFFFFF" d="M41.489,104.91c5.059-1.784,19.365-7.22,21.851-7.934c4.946-1.421,9.23-1.826,10.592-2.388
	c1.559-0.643,2.805-1.647,3.603-2.774l-2.624-6.431c-1.366-0.243-2.969-0.075-4.537,0.575c-1.241,0.512-5.091,3.408-9.609,5.959
	c-2.484,1.403-16.177,7.471-20.662,9.51"/>
<path fill="#FFFFFF" d="M75.412,88.923c2.627,6.341,9.896,9.352,16.237,6.726s9.352-9.896,6.726-16.237
	c-2.627-6.341-9.896-9.352-16.237-6.726S72.785,82.582,75.412,88.923z M90.169,82.81c0.749,1.809-0.11,3.884-1.919,4.633
	c-1.809,0.749-3.884-0.11-4.633-1.919c-0.749-1.809,0.11-3.884,1.919-4.633C87.345,80.142,89.42,81.001,90.169,82.81z"/>
<path fill="#FFFFFF" d="M64.646,127.803l-1.356,2.709c0.627,0.509,1.309,0.938,1.995,1.3c-0.039,0.108-0.077,0.218-0.116,0.326
	c-0.452,0.599-0.954,1.29-1.522,2.055c-2.666,3.587-5.238,5.797-6.699,10.606c-0.818,2.688-0.106,5.47,2.17,6.416
	c2.278,0.946,4.813-0.48,6.077-2.991c2.904-5.771,2.02-7.609,2.679-11.865c0.189-1.221,0.384-2.342,0.509-3.296
	c1.156,0.349,1.966,0.479,1.966,0.479l1.103-2.899"/>
<path fill="#FFFFFF" d="M69.455,130.94c2.316-4.839,8.587-18.799,9.841-21.062c2.493-4.502,5.236-7.818,5.801-9.178
	c0.648-1.558,0.819-3.148,0.586-4.509l-6.403-2.692c-1.138,0.794-2.152,2.046-2.802,3.615c-0.515,1.24-1.19,6.01-2.581,11.008
	c-0.764,2.748-6.156,16.721-7.885,21.335"/>
<path fill="#FFFFFF" d="M82.137,95.649c6.341,2.627,13.611-0.385,16.237-6.726c2.627-6.341-0.385-13.611-6.726-16.237
	c-6.341-2.627-13.611,0.385-16.237,6.726C72.785,85.753,75.796,93.022,82.137,95.649z M88.25,80.891
	c1.809,0.749,2.669,2.824,1.919,4.633c-0.749,1.809-2.824,2.669-4.633,1.919s-2.669-2.824-1.919-4.633
	C84.366,81.001,86.441,80.142,88.25,80.891z"/>
<path fill="#FFFFFF" d="M102.017,130.754l0.957,2.874c0.803-0.083,1.589-0.262,2.33-0.491c0.049,0.104,0.1,0.208,0.149,0.312
	c0.104,0.743,0.238,1.587,0.377,2.529c0.651,4.422,0.395,7.803,2.762,12.237c1.322,2.48,3.793,3.943,6.071,3.002
	c2.28-0.942,3.064-3.743,2.182-6.412c-2.027-6.134-3.951-6.809-6.496-10.285c-0.73-0.997-1.385-1.928-1.971-2.691
	c1.064-0.57,1.729-1.052,1.729-1.052l-1.27-2.83"/>
<path fill="#FFFFFF" d="M107.635,129.571c-1.784-5.059-7.22-19.365-7.934-21.851c-1.421-4.946-1.826-9.23-2.388-10.592
	c-0.643-1.559-1.647-2.805-2.774-3.603l-6.431,2.624c-0.243,1.366-0.075,2.969,0.575,4.537c0.512,1.241,3.408,5.091,5.959,9.609
	c1.403,2.484,7.471,16.177,9.51,20.662"/>
<path fill="#FFFFFF" d="M91.649,95.649c6.341-2.627,9.352-9.896,6.726-16.237c-2.627-6.341-9.896-9.352-16.237-6.726
	c-6.341,2.627-9.352,9.896-6.726,16.237C78.038,95.264,85.308,98.275,91.649,95.649z M85.536,80.891
	c1.809-0.749,3.884,0.11,4.633,1.919c0.749,1.809-0.11,3.884-1.919,4.633s-3.884-0.11-4.633-1.919
	C82.867,83.715,83.726,81.641,85.536,80.891z"/>
<path fill="#FFFFFF" d="M130.529,106.415l2.709,1.356c0.509-0.627,0.938-1.309,1.3-1.995c0.108,0.039,0.218,0.077,0.326,0.116
	c0.599,0.452,1.29,0.954,2.055,1.522c3.587,2.666,5.797,5.238,10.606,6.699c2.688,0.818,5.47,0.106,6.416-2.17
	c0.946-2.278-0.48-4.813-2.991-6.077c-5.771-2.904-7.609-2.02-11.865-2.679c-1.221-0.189-2.342-0.384-3.296-0.509
	c0.35-1.156,0.479-1.966,0.479-1.966l-2.899-1.103"/>
<path fill="#FFFFFF" d="M133.666,101.606c-4.839-2.316-18.799-8.587-21.062-9.841c-4.502-2.493-7.818-5.236-9.178-5.801
	c-1.558-0.648-3.148-0.819-4.509-0.586l-2.692,6.403c0.794,1.138,2.046,2.152,3.615,2.802c1.24,0.515,6.01,1.19,11.008,2.581
	c2.748,0.764,16.721,6.156,21.335,7.885"/>
<path fill="#FFFFFF" d="M98.374,88.923c2.627-6.341-0.385-13.611-6.726-16.237c-6.341-2.627-13.611,0.385-16.237,6.726
	c-2.627,6.341,0.385,13.611,6.726,16.237C88.478,98.275,95.748,95.264,98.374,88.923z M83.617,82.81
	c0.749-1.809,2.824-2.669,4.633-1.919c1.809,0.749,2.669,2.824,1.919,4.633c-0.749,1.809-2.824,2.669-4.633,1.919
	C83.726,86.694,82.867,84.62,83.617,82.81z"/>
<path fill="#FFFFFF" d="M133.479,69.044l2.874-0.957c-0.083-0.803-0.262-1.589-0.491-2.33c0.104-0.049,0.208-0.1,0.312-0.149
	c0.743-0.104,1.587-0.238,2.529-0.377c4.422-0.651,7.803-0.395,12.237-2.762c2.48-1.322,3.943-3.793,3.002-6.071
	c-0.942-2.28-3.743-3.064-6.412-2.182c-6.134,2.027-6.809,3.951-10.285,6.496c-0.997,0.73-1.928,1.385-2.691,1.971
	c-0.57-1.064-1.052-1.729-1.052-1.729l-2.83,1.27"/>
<path fill="#FFFFFF" d="M132.297,63.425c-5.059,1.784-19.365,7.22-21.851,7.934c-4.946,1.421-9.23,1.826-10.592,2.388
	c-1.559,0.643-2.805,1.647-3.603,2.774l2.624,6.431c1.366,0.243,2.969,0.075,4.537-0.575c1.241-0.512,5.091-3.408,9.609-5.959
	c2.484-1.403,16.177-7.471,20.662-9.51"/>
<path fill="#FFFFFF" d="M98.374,79.412c-2.627-6.341-9.896-9.352-16.237-6.726c-6.341,2.627-9.352,9.896-6.726,16.237
	c2.627,6.341,9.896,9.352,16.237,6.726C97.99,93.022,101.001,85.753,98.374,79.412z M83.617,85.525
	c-0.749-1.809,0.11-3.884,1.919-4.633c1.809-0.749,3.884,0.11,4.633,1.919c0.749,1.809-0.11,3.884-1.919,4.633
	C86.441,88.193,84.366,87.334,83.617,85.525z"/>
<path fill="#FFFFFF" d="M109.14,40.532l1.356-2.709c-0.627-0.509-1.309-0.938-1.995-1.3c0.039-0.108,0.077-0.218,0.116-0.326
	c0.452-0.599,0.954-1.29,1.522-2.055c2.666-3.587,5.238-5.797,6.699-10.606c0.818-2.688,0.106-5.47-2.17-6.416
	c-2.278-0.946-4.813,0.48-6.077,2.991c-2.904,5.771-2.02,7.609-2.679,11.865c-0.189,1.221-0.384,2.342-0.509,3.296
	c-1.156-0.349-1.966-0.479-1.966-0.479l-1.103,2.899"/>
<path fill="#FFFFFF" d="M104.331,37.395c-2.316,4.839-8.587,18.799-9.841,21.062c-2.493,4.502-5.236,7.818-5.801,9.178
	c-0.648,1.558-0.819,3.148-0.586,4.509l6.403,2.692c1.138-0.794,2.152-2.046,2.802-3.615c0.515-1.24,1.19-6.01,2.581-11.008
	c0.764-2.748,6.156-16.721,7.885-21.335"/>
<path fill="#FFFFFF" d="M91.649,72.686c-6.341-2.627-13.611,0.385-16.237,6.726c-2.627,6.341,0.385,13.611,6.726,16.237
	c6.341,2.627,13.611-0.385,16.237-6.726C101.001,82.582,97.99,75.313,91.649,72.686z M85.536,87.444
	c-1.809-0.749-2.669-2.824-1.919-4.633c0.749-1.809,2.824-2.669,4.633-1.919c1.809,0.749,2.669,2.824,1.919,4.633
	C89.42,87.334,87.345,88.193,85.536,87.444z"/>
</svg>
