<?xml version="1.0" encoding="utf-8"?>
<!-- Generator: Adobe Illustrator 17.0.0, SVG Export Plug-In . SVG Version: 6.00 Build 0)  -->
<!DOCTYPE svg PUBLIC "-//W3C//DTD SVG 1.1//EN" "http://www.w3.org/Graphics/SVG/1.1/DTD/svg11.dtd">
<svg version="1.1" id="Layer_1" xmlns="http://www.w3.org/2000/svg" xmlns:xlink="http://www.w3.org/1999/xlink" x="0px" y="0px"
	 width="170px" height="170px" viewBox="0 0 170 170" enable-background="new 0 0 170 170" xml:space="preserve">
<rect fill="#1BAAC5" width="170" height="170"/>
<path fill="#FFFFFF" d="M45.937,121.747l-8.132-8.403c0,0-3.841-4.11,0-7.952c2.891-2.891,7.861,1.809,7.861,1.809l8.403,8.493
	c0,0,4.971,4.066,8.134,5.42c3.161,1.358,19.064,9.31,19.064,24.22c0,14.91,0,24.667,0,24.667H61.748c0,0,0.092-9.486-2.078-15.087
	c-1.492-3.854-5.496-5.729-10.122-8.042c0,0-12.832-5.514-15-7.773c-2.17-2.257-6.146-7.139-14.28-22.952
	c0,0-1.73-3.163-1.805-9.127c-0.027-1.988-0.815-15.721-0.815-15.721s0-4.79,4.158-4.79s4.158,5.514,4.158,5.514l0.903,14.368
	c0,0,8.676,14.91,12.018,18.162c0,0,3.254,2.618,11.115,3.703L45.937,121.747z"/>
<path fill="#FFFFFF" d="M128.414,121.747l8.134-8.403c0,0,3.841-4.11,0-7.952c-2.893-2.891-7.863,1.809-7.863,1.809l-8.401,8.493
	c0,0-4.971,4.066-8.134,5.42c-3.163,1.358-19.066,9.31-19.066,24.22c0,14.91,0,24.667,0,24.667h19.518c0,0-0.09-9.486,2.08-15.087
	c1.49-3.854,5.496-5.729,10.12-8.042c0,0,12.832-5.514,15-7.773c2.17-2.257,6.144-7.139,14.278-22.952c0,0,1.73-3.163,1.807-9.127
	c0.027-1.988,0.814-15.721,0.814-15.721s0-4.79-4.158-4.79c-4.158,0-4.158,5.514-4.158,5.514l-0.903,14.368
	c0,0-8.674,14.91-12.018,18.162c0,0-3.252,2.618-11.113,3.703L128.414,121.747z"/>
<path fill="#FFFFFF" d="M126.777,48.808c-8.873-22.667-32.155-15.991-39.922-5.855c-7.767-10.135-31.051-16.812-39.922,5.855
	c-7.929,20.269,24.953,49.13,37.556,59.23c0.901,0.724,1.696,1.346,2.366,1.87c0.672-0.521,1.467-1.146,2.366-1.87
	C101.824,97.938,134.706,69.077,126.777,48.808z"/>
</svg>
