<?xml version="1.0" encoding="utf-8"?>
<!-- Generator: Adobe Illustrator 17.0.0, SVG Export Plug-In . SVG Version: 6.00 Build 0)  -->
<!DOCTYPE svg PUBLIC "-//W3C//DTD SVG 1.1//EN" "http://www.w3.org/Graphics/SVG/1.1/DTD/svg11.dtd">
<svg version="1.1" id="Layer_1" xmlns="http://www.w3.org/2000/svg" xmlns:xlink="http://www.w3.org/1999/xlink" x="0px" y="0px"
	 width="170px" height="170px" viewBox="0 0 170 170" enable-background="new 0 0 170 170" xml:space="preserve">
<path fill="#FFFFFF" d="M85.678,147.355c-31.305,0-56.774-25.468-56.774-56.773s25.469-56.774,56.774-56.774
	s56.773,25.469,56.773,56.774S116.983,147.355,85.678,147.355z M85.678,42.497c-26.515,0-48.086,21.571-48.086,48.086
	s21.571,48.085,48.086,48.085s48.085-21.571,48.085-48.085S112.192,42.497,85.678,42.497z"/>
<rect x="80.367" y="24.558" fill="#FFFFFF" width="10.621" height="10.396"/>
<rect x="74.265" y="20.716" fill="#FFFFFF" width="22.825" height="7.684"/>
<rect x="80.367" y="24.558" fill="#FFFFFF" width="10.621" height="10.396"/>
<rect x="80.367" y="24.558" fill="#FFFFFF" width="10.621" height="10.396"/>
<rect x="109.067" y="33.808" transform="matrix(0.8479 0.5301 -0.5301 0.8479 38.0712 -54.7014)" fill="#FFFFFF" width="10.621" height="10.396"/>
<path fill="#FFFFFF" d="M85.678,89.51c-1.807,0-3.272-1.465-3.272-3.272v-36.33c0-1.807,1.465-3.272,3.272-3.272
	s3.272,1.465,3.272,3.272v36.33C88.95,88.045,87.485,89.51,85.678,89.51z"/>
<path fill="#FFFFFF" d="M85.678,103.089c-5.514,0-10.001-4.486-10.001-10.001c0-5.514,4.487-10.001,10.001-10.001
	c5.514,0,10,4.487,10,10.001C95.678,98.603,91.191,103.089,85.678,103.089z M85.678,89.387c-2.041,0-3.702,1.661-3.702,3.702
	c0,2.042,1.661,3.702,3.702,3.702c2.041,0,3.701-1.661,3.701-3.702C89.379,91.047,87.719,89.387,85.678,89.387z"/>
</svg>
