<?xml version="1.0" encoding="utf-8"?>
<!-- Generator: Adobe Illustrator 17.0.0, SVG Export Plug-In . SVG Version: 6.00 Build 0)  -->
<!DOCTYPE svg PUBLIC "-//W3C//DTD SVG 1.1//EN" "http://www.w3.org/Graphics/SVG/1.1/DTD/svg11.dtd">
<svg version="1.1" id="Layer_1" xmlns="http://www.w3.org/2000/svg" xmlns:xlink="http://www.w3.org/1999/xlink" x="0px" y="0px"
	 width="170px" height="170px" viewBox="0 0 170 170" enable-background="new 0 0 170 170" xml:space="preserve">
<polygon fill="#FFFFFF" points="75.481,64.686 110.694,73.483 122.883,53.178 133.928,59.811 134.5,25.433 104.44,42.118 
	115.484,48.751 106.586,63.584 72.837,55.139 31.269,96.71 37.364,102.803 "/>
<polygon fill="#FFFFFF" points="65.54,137.493 82.78,137.493 82.78,75.394 78.125,74.231 65.54,86.816 "/>
<polygon fill="#FFFFFF" points="39.679,112.334 39.679,137.493 56.919,137.493 56.919,95.437 "/>
<polygon fill="#FFFFFF" points="117.26,79.309 117.26,137.493 134.5,137.493 134.5,70.208 125.839,65.015 "/>
<polygon fill="#FFFFFF" points="108.641,137.493 108.641,81.859 91.399,77.549 91.399,137.493 "/>
</svg>
