<?xml version="1.0" encoding="utf-8"?>
<!-- Generator: Adobe Illustrator 17.0.0, SVG Export Plug-In . SVG Version: 6.00 Build 0)  -->
<!DOCTYPE svg PUBLIC "-//W3C//DTD SVG 1.1//EN" "http://www.w3.org/Graphics/SVG/1.1/DTD/svg11.dtd">
<svg version="1.1" id="Layer_1" xmlns="http://www.w3.org/2000/svg" xmlns:xlink="http://www.w3.org/1999/xlink" x="0px" y="0px"
	 width="170px" height="170px" viewBox="0 0 170 170" enable-background="new 0 0 170 170" xml:space="preserve">
<path fill="#FFFFFF" d="M85.165,144.458l-0.891-0.2c-27.522-6.174-49.429-25.575-57.172-50.631l-0.685-2.218l1.559-1.719
	c5.984-6.599,9.146-14.305,9.146-22.283c0-6.533-2.053-12.761-6.104-18.509l-1.369-1.944l1.021-2.149
	c3.535-7.44,8.357-14.23,14.329-20.18l2.397-2.388l2.786,1.919c9.618,6.624,22.042,10.272,34.983,10.272s25.365-3.648,34.983-10.272
	l2.786-1.919l2.397,2.388c5.972,5.95,10.793,12.74,14.329,20.18l1.021,2.149l-1.369,1.944c-4.051,5.748-6.104,11.976-6.104,18.509
	c0,7.978,3.163,15.684,9.146,22.283l1.559,1.719l-0.685,2.218c-7.743,25.056-29.65,44.457-57.172,50.631L85.165,144.458z
	 M35.579,93.341c7.349,20.984,26.108,37.203,49.585,42.767c23.477-5.564,42.236-21.784,49.585-42.767
	c-6.346-7.72-9.686-16.639-9.686-25.933c0-7.349,2.145-14.611,6.226-21.145c-2.529-4.856-5.696-9.383-9.451-13.508
	c-10.485,6.351-23.368,9.818-36.675,9.818s-26.191-3.467-36.675-9.818c-3.755,4.126-6.922,8.652-9.451,13.508
	c4.081,6.534,6.226,13.796,6.226,21.145C45.265,76.702,41.925,85.621,35.579,93.341z"/>
<g>
	<path fill="#FFFFFF" d="M113.345,116.933c7.681-6.496,13.174-13.706,16.793-22.874c-2.883-3.852-5.099-7.963-6.632-12.246
		c-16.663,4.414-31.929,9.772-45.291,15.22C89.695,102.279,101.423,108.913,113.345,116.933z"/>
	<path fill="#FFFFFF" d="M85.731,130.48c8.524-2.141,16.363-5.77,23.152-10.562c-23.247-15.182-45.24-26.058-64.025-33.781
		c-1.171,2.228-2.536,4.395-4.101,6.485C48.022,111.024,64.817,125.227,85.731,130.48z"/>
</g>
<polygon fill="#FFFFFF" points="73.173,58.337 78.689,53.24 78.142,60.73 85.567,61.864 79.37,66.107 83.112,72.619 75.931,70.42 
	73.173,77.406 70.415,70.42 63.234,72.619 66.976,66.107 60.779,61.864 68.203,60.73 67.657,53.24 "/>
</svg>
