<?xml version="1.0" encoding="utf-8"?>
<!-- Generator: Adobe Illustrator 17.0.0, SVG Export Plug-In . SVG Version: 6.00 Build 0)  -->
<!DOCTYPE svg PUBLIC "-//W3C//DTD SVG 1.1//EN" "http://www.w3.org/Graphics/SVG/1.1/DTD/svg11.dtd">
<svg version="1.1" id="Layer_1" xmlns="http://www.w3.org/2000/svg" xmlns:xlink="http://www.w3.org/1999/xlink" x="0px" y="0px"
	 width="170px" height="170px" viewBox="0 0 170 170" enable-background="new 0 0 170 170" xml:space="preserve">
<path fill="#FFFFFF" d="M42.952,114.504V53.48H27.975v61.025c0,5.541,4.492,10.033,10.033,10.033c2.981,0,5.651-1.308,7.488-3.372
	C43.919,119.393,42.952,117.064,42.952,114.504z"/>
<path fill="#FFFFFF" d="M48.042,41.081v73.423c0,5.541-4.492,10.033-10.033,10.033h97.987c5.541,0,10.033-4.492,10.033-10.033
	V41.081H48.042z M117.133,54.055l4.422-1.52l1.52-4.422l4.202,2.052l4.202-2.052l1.52,4.422l4.422,1.52l-2.052,4.202l2.052,4.202
	l-4.422,1.52l-1.52,4.422l-4.202-2.052l-4.202,2.052l-1.52-4.422l-4.422-1.52l2.052-4.202L117.133,54.055z M56.54,52.948h51.134
	v12.72H56.54V52.948z M56.54,91.133h70.737v5.127H56.54V91.133z M132.507,105.53H56.54v-5.127h75.967V105.53z M139.669,86.991H56.54
	v-5.127h83.129V86.991z"/>
</svg>
