<?xml version="1.0" encoding="utf-8"?>
<!-- Generator: Adobe Illustrator 21.0.0, SVG Export Plug-In . SVG Version: 6.00 Build 0)  -->
<svg version="1.1" id="Layer_1" xmlns="http://www.w3.org/2000/svg" xmlns:xlink="http://www.w3.org/1999/xlink" x="0px" y="0px"
	 width="170px" height="170px" viewBox="0 0 170 170" style="enable-background:new 0 0 170 170;" xml:space="preserve">
<style type="text/css">
	.st0{fill:#FFFFFF;}
</style>
<polygon class="st0" points="147.6,61.7 147.6,51.7 114,51.7 114,118.2 147.6,118.2 147.6,108.2 123.5,108.2 123.5,99.4 147.6,99.4 
	147.6,89.4 123.5,89.4 123.5,80.6 147.6,80.6 147.6,70.5 123.5,70.5 123.5,61.7 "/>
<polygon class="st0" points="66.6,70.5 66.6,118.2 100.2,118.2 100.2,108.2 76,108.2 76,99.4 100.2,99.4 100.2,89.4 76,89.4 
	76,80.6 100.2,80.6 100.2,70.5 "/>
<polygon class="st0" points="28.6,108.2 19.1,108.2 19.1,118.2 28.6,118.2 52.8,118.2 52.8,108.2 "/>
</svg>
