<?xml version="1.0" encoding="utf-8"?>
<!-- Generator: Adobe Illustrator 17.0.0, SVG Export Plug-In . SVG Version: 6.00 Build 0)  -->
<!DOCTYPE svg PUBLIC "-//W3C//DTD SVG 1.1//EN" "http://www.w3.org/Graphics/SVG/1.1/DTD/svg11.dtd">
<svg version="1.1" id="Layer_1" xmlns="http://www.w3.org/2000/svg" xmlns:xlink="http://www.w3.org/1999/xlink" x="0px" y="0px"
	 width="170px" height="170px" viewBox="0 0 170 170" enable-background="new 0 0 170 170" xml:space="preserve">
<path fill="#FFFFFF" d="M53.106,98.54c0,0,5.751,28.712,32.483,45.097c10.054-8.031,17.672-24.492-6.584-56.73
	C59.812,61.401,64.803,41.182,72.504,28.61c-26.177,5.722-45.781,29.025-45.781,56.919c0,29.485,21.9,53.839,50.318,57.723
	C53.085,122.564,53.106,98.54,53.106,98.54z"/>
<path fill="#FFFFFF" d="M115.988,78.25c-34.319-7.771-20.29-44.895-20.29-44.895s-21.367,11.224,5.613,60.004
	c12.698,26.714,0.437,42.586-8.501,49.913c28.491-3.819,50.467-28.207,50.467-57.744c0-17.635-7.845-33.43-20.224-44.117
	c2.944,4.35,5.474,9.096,6.966,14.174C134.921,72.254,123.646,79.863,115.988,78.25z"/>
<circle fill="#FFFFFF" cx="116.759" cy="62.592" r="10.048"/>
</svg>
