<?xml version="1.0" encoding="utf-8"?>
<!-- Generator: Adobe Illustrator 17.0.0, SVG Export Plug-In . SVG Version: 6.00 Build 0)  -->
<!DOCTYPE svg PUBLIC "-//W3C//DTD SVG 1.1//EN" "http://www.w3.org/Graphics/SVG/1.1/DTD/svg11.dtd">
<svg version="1.1" id="Layer_1" xmlns="http://www.w3.org/2000/svg" xmlns:xlink="http://www.w3.org/1999/xlink" x="0px" y="0px"
	 width="170px" height="170px" viewBox="0 0 170 170" enable-background="new 0 0 170 170" xml:space="preserve">
<g>
	<path fill="#FFFFFF" d="M50.191,29.214c0.454,1.104,0.977,2.104,1.526,3.001c2.551,4.166,5.726,6.194,5.726,6.194
		c1.611-1.593,7.879-3.343,8.773-4.3c0.462-0.491,1.36-2.41,1.832-4.811c0.444-2.257,0.51-4.937-0.533-7.252
		c-2.148-4.776-6.356-5.813-11.551-5.492c-5.191,0.317-7.654,3.226-7.654,3.226c-0.512,3.063-0.264,5.724,0.412,7.998
		C48.886,28.331,49.982,28.71,50.191,29.214z"/>
	<path fill="#FFFFFF" d="M139.44,29.214c0.454,1.104,0.978,2.104,1.527,3.001c2.551,4.166,5.726,6.194,5.726,6.194
		c1.611-1.593,7.879-3.343,8.772-4.3c0.462-0.491,1.361-2.41,1.832-4.811c0.444-2.257,0.51-4.937-0.532-7.252
		c-2.148-4.776-6.357-5.813-11.552-5.492c-5.191,0.317-7.653,3.226-7.653,3.226c-0.512,3.063-0.264,5.724,0.411,7.998
		C138.135,28.331,139.232,28.71,139.44,29.214z"/>
	<path fill="#FFFFFF" d="M168.692,41.696c-2.426-3.165-5.062-6.236-7.89-9.08c-4.632,2.484-9.632,5.475-14.152,8.406l-12.248,3.854
		l-20.443,7.019l21.642-3.193c-1.897,1.394-3.701,2.753-5.372,4.041c-5.182,0.492-13.179,1.4-25.474,3.063
		c-0.063,0.01-0.128,0.021-0.189,0.025c-0.092-0.122-0.188-0.248-0.279-0.369c-5.469-7.276-4.528-4.941-4.528-4.941l-2.723,0.859
		l4.872,6.125c0,0,0.123,0.146,0.35,0.412l-0.033,0.063c0,0,0.038,0.008,0.101,0.018c1.525,1.788,7.406,8.567,17.813,19.228
		c0.511,0.523,1.037,1.063,1.569,1.604c-0.023,0.051-0.05,0.101-0.075,0.149c-3.874,7.991-6.755,15.801-8.549,21.148H84.468
		c3.254-0.791,8.352-2.703,11.575-7.247c0,0,3.433-5.264,3.433-14.875c0,0-7.088-19.414-20.032-36.306
		c-2.425-3.165-5.061-6.236-7.89-9.08c-3.908,2.098-8.078,4.555-12.006,7.035l-21.251,6.77l-20.442,7.021l26.533-3.284
		c-1.185,0.885-2.324,1.75-3.409,2.586c-5.178,0.492-13.167,1.399-25.448,3.06c-0.011-0.015-0.022-0.028-0.033-0.044
		c-4.186-5.336-4.893-5.163-4.893-5.163l-2.873,0.96l5.26,6.395l-0.019,0.032c0,0,0.029,0.005,0.053,0.009
		c0.353,0.406,6.822,7.848,19.595,20.505c-0.079,0.161-0.161,0.321-0.239,0.481c-3.872,7.986-6.756,15.8-8.55,21.148H0v5.59
		c10.21-1.168,18.439-0.956,18.616,3.215c0.306,7.219,20.138,5.367,48.82,2.035c0.007,0,0.013-0.001,0.019-0.002
		c8.895,7.852,18.881,16.379,30.006,25.478l1.896,11.678l13.65,11.635c0,0,26.62-4.093,38.254-4.058l-37.512-19.905l-11.222-0.953
		c-7.954-5.438-18.27-13.211-31.42-24.313c27.078-3.356,49.554-8.321,45.758-1.594c-3.967,7.033,14.951,4.813,32.344,2.961
		c1.798-0.188,3.947-0.433,6.355-0.705c4.521,4.087,9.332,8.355,14.434,12.79v-4.109v-10.3V43.444
		C169.57,42.855,169.136,42.275,168.692,41.696z M17.803,58.674c3.447,0.466,8.423,1.072,13.884,1.531
		c4.514,0.381,9.354,0.659,13.925,0.673c2.772-1.316,5.959-2.871,9.309-4.577c1.236-0.629,2.493-1.276,3.762-1.946
		c2.146,3.816,4.946,7.708,8.604,11.288c0,0,5.453,5.936,7.709,11.431c-16.995-7.626-34.79-11.889-34.79-11.889
		c-2.426,3.593-4.625,7.457-6.601,11.339C27.417,70.217,22.08,64.008,17.803,58.674z M30.732,100.123
		c2.858-3.305,6.376-7.492,10.307-12.438c0.146-0.185,0.297-0.376,0.445-0.563c4.168,3.99,8.803,8.337,13.899,12.998L30.732,100.123
		L30.732,100.123z M59.081,100.123c-5.062-4.473-10.468-9.36-16.245-14.717c0.568-0.726,1.138-1.447,1.72-2.201
		c7.433,4.73,23.312,14.298,34.073,16.918H59.081z M121.061,75.348c-5.605-5.901-10.441-11.701-14.348-16.721
		c0.076,0.012,0.145,0.021,0.223,0.03c3.452,0.467,8.479,1.082,14,1.547c4.515,0.381,9.354,0.659,13.926,0.673
		c2.771-1.316,5.958-2.871,9.309-4.577c1.235-0.629,2.492-1.278,3.761-1.946c2.146,3.816,4.946,7.708,8.604,11.288
		c0,0,5.454,5.936,7.71,11.431c-16.995-7.626-34.79-11.889-34.79-11.889c-2.517,3.729-4.796,7.75-6.829,11.776
		C122.103,76.424,121.57,75.885,121.061,75.348z M119.981,100.123c2.859-3.305,6.371-7.486,10.307-12.438
		c0.043-0.054,0.087-0.106,0.13-0.161c3.956,3.886,8.338,8.099,13.136,12.599H119.981L119.981,100.123z M147.053,100.123
		c-4.762-4.313-9.863-9.047-15.328-14.252c0.684-0.869,1.375-1.754,2.079-2.666c7.434,4.73,23.313,14.298,34.073,16.918H147.053z"/>
</g>
</svg>
