<?xml version="1.0" encoding="utf-8"?>
<!-- Generator: Adobe Illustrator 17.0.0, SVG Export Plug-In . SVG Version: 6.00 Build 0)  -->
<!DOCTYPE svg PUBLIC "-//W3C//DTD SVG 1.1//EN" "http://www.w3.org/Graphics/SVG/1.1/DTD/svg11.dtd">
<svg version="1.1" id="Layer_1" xmlns="http://www.w3.org/2000/svg" xmlns:xlink="http://www.w3.org/1999/xlink" x="0px" y="0px"
	 width="170px" height="170px" viewBox="0 0 170 170" enable-background="new 0 0 170 170" xml:space="preserve">
<g>
	<path fill="#FFFFFF" d="M84,53.993c4.464,0,8.083-3.619,8.083-8.083V33.899c0-1.243-1.007-2.25-2.25-2.25H78.167
		c-1.243,0-2.25,1.007-2.25,2.25V45.91C75.917,50.374,79.536,53.993,84,53.993z"/>
	<path fill="#FFFFFF" d="M53.758,87.924c3.086,0,5.588-3.558,5.588-7.297s-1.446-6.245-5.588-6.245
		c-4.142,0-5.588,2.505-5.588,6.245S50.672,87.924,53.758,87.924z"/>
	<path fill="#FFFFFF" d="M64.537,94.909c0,0-2.562-5.389-10.78-5.389c-8.219,0-10.779,5.389-10.779,5.389v2.696h21.559V94.909z"/>
	<path fill="#FFFFFF" d="M95.389,45.824v1.1c0,5.929-5.099,10.736-11.389,10.736c-6.29,0-11.389-4.807-11.389-10.736v-1.1H24.75v84
		h118.5v-84H95.389z M69.202,102.523H38.314V71.635h30.888V102.523z M75.538,95.327h41.564v5.127H75.538V95.327z M122.333,109.723
		H75.538v-5.127h46.795V109.723z M129.495,91.185H75.538v-5.127h53.957V91.185z M123.826,79.757H75.538v-7.726h48.287V79.757z"/>
</g>
</svg>
