<?xml version="1.0" encoding="utf-8"?>
<!-- Generator: Adobe Illustrator 21.0.0, SVG Export Plug-In . SVG Version: 6.00 Build 0)  -->
<svg version="1.1" id="Layer_1" xmlns="http://www.w3.org/2000/svg" xmlns:xlink="http://www.w3.org/1999/xlink" x="0px" y="0px"
	 width="170px" height="170px" viewBox="0 0 170 170" style="enable-background:new 0 0 170 170;" xml:space="preserve">
<style type="text/css">
	.st0{fill:#FFFFFF;}
</style>
<g>
	<path class="st0" d="M118.3,58.7v-2.8V51v-2.8v-3.5H51.7h-2.8H37.9v3.5V51v4.9v2.8v61.1c0,3,2.5,5.5,5.5,5.5h6.2h70.8
		c-1.3-1.5-2.1-3.4-2.1-5.5V58.7z M75.3,108.6H48.9v-2.8h26.3V108.6z M75.3,101.7H48.9v-2.8h26.3V101.7z M75.3,94.7H48.9v-2.8h26.3
		V94.7z M75.3,87.8H48.9V85h26.3V87.8z M75.3,80.9H48.9v-2.8h26.3V80.9z M107.2,108.6H80.8v-2.8h26.3V108.6z M107.2,101.7H80.8v-2.8
		h26.3V101.7z M107.2,94.7H80.8v-2.8h26.3V94.7z M107.2,87.8H80.8V85h26.3V87.8z M107.2,80.9H80.8v-2.8h26.3V80.9z M107.2,71.1H48.9
		V57.3h58.2V71.1z"/>
	<rect x="51.7" y="60.1" class="st0" width="52.7" height="8.3"/>
	<path class="st0" d="M121.1,58.7v61.1c0,3,2.5,5.5,5.5,5.5c3.1,0,5.5-2.5,5.5-5.5V58.7H121.1z"/>
</g>
</svg>
